<svg width="24" height="24" viewBox="0 0 24 24" fill="none" xmlns="http://www.w3.org/2000/svg">
<path d="M10.1642 20.9496C8.64089 21.2304 7.36789 20.2892 6.57445 19.4533C5.28396 17.99 4.37169 16.2305 3.918 14.3298C3.05605 11.0697 3.688 9.10102 4.36959 8.02368C4.68769 7.51395 5.10865 7.07678 5.60532 6.74036C6.10199 6.40394 6.66335 6.17573 7.25324 6.07044C7.5158 6.0232 7.78204 5.99971 8.04878 6.00025C8.7026 6.00838 9.34724 6.15594 9.93996 6.43315C10.5327 6.71036 11.0599 7.11089 11.4868 7.60819C11.5515 7.68022 11.6305 7.73781 11.7188 7.77723C11.8071 7.81665 11.9026 7.83701 11.9992 7.83701C12.0958 7.83701 12.1913 7.81665 12.2796 7.77723C12.3679 7.73781 12.4469 7.68022 12.5116 7.60819C13.0234 7.00473 13.683 6.54556 14.4254 6.27591C15.1677 6.00626 15.9672 5.93545 16.7452 6.07044C17.3349 6.1751 17.8963 6.40259 18.3932 6.73827C18.8901 7.07396 19.3115 7.51039 19.6302 8.01947C20.3118 9.09681 20.9438 11.0655 20.0825 14.3256C19.6285 16.2261 18.7163 17.9856 17.4261 19.4491C16.6291 20.285 15.3596 21.2227 13.8357 20.9454C13.7567 20.9307 13.677 20.9131 13.5994 20.8928C12.5517 20.6149 11.4502 20.6149 10.4025 20.8928C10.3235 20.9174 10.2438 20.9349 10.1642 20.9496Z" stroke="#272A44" stroke-width="2" stroke-miterlimit="10"/>
<path d="M12.7515 3.51815C13.5739 2.50827 15.0799 2.13543 15.96 2.00024C16.0497 2.83913 16.0562 4.30642 15.2338 5.31629C14.3902 6.18649 13.2715 6.77703 12.0436 7.00024C11.9376 6.00642 11.9729 4.47432 12.7515 3.51815Z" stroke="#272A44" stroke-width="2" stroke-linecap="round" stroke-linejoin="round"/>
</svg>
