<svg xmlns="http://www.w3.org/2000/svg" width="24" height="24" fill="none"><path stroke="#272A44" stroke-linejoin="round" stroke-width="2" d="M21.227 13.634a2.114 2.114 0 0 0 0-3.269l-.397-.325a3.199 3.199 0 0 1-1.162-2.677l.046-.728a2.214 2.214 0 0 0-2.347-2.352l-.737.046a3.2 3.2 0 0 1-2.67-1.162l-.324-.394a2.118 2.118 0 0 0-3.271-.002l-.326.397a3.207 3.207 0 0 1-2.673 1.161l-.817-.05A2.03 2.03 0 0 0 4.432 6.7l.088.445a2.882 2.882 0 0 1-1.185 2.93l-.47.326a2.007 2.007 0 0 0-.131 3.201l.434.357a3.2 3.2 0 0 1 1.162 2.673l-.046.746a2.186 2.186 0 0 0 2.362 2.315l.675-.055a3.162 3.162 0 0 1 2.73 1.175l.3.376a2.16 2.16 0 0 0 3.292.095l.357-.396a3.354 3.354 0 0 1 2.493-1.11h.915a2.308 2.308 0 0 0 2.304-2.456l-.044-.687a3.198 3.198 0 0 1 1.162-2.676l.397-.326Z"/><path stroke="#272A44" stroke-linecap="round" stroke-linejoin="round" stroke-width="2" d="M8 12.059 10.668 15 16 9"/></svg>