<svg xmlns="http://www.w3.org/2000/svg" width="24" height="24" fill="none"><mask id="a" width="22" height="19" x="1" y="4.3" fill="#000" maskUnits="userSpaceOnUse"><path fill="#fff" d="M1 4.3h22v19H1z"/><path fill-rule="evenodd" d="M19.155 14.306a7.201 7.201 0 0 1-14.31 0 1.35 1.35 0 1 1 .143-2.447 7.203 7.203 0 0 1 14.024 0 1.35 1.35 0 1 1 .143 2.447Z" clip-rule="evenodd"/></mask><path fill="#272A44" d="m19.155 14.306.733-1.86a2 2 0 0 0-2.72 1.639l1.987.221Zm-14.31 0 1.987-.221a2 2 0 0 0-2.72-1.64l.733 1.861Zm.143-2.446-.946 1.762a2 2 0 0 0 2.893-1.308l-1.947-.454Zm14.024 0-1.948.454a2 2 0 0 0 2.894 1.308l-.946-1.762Zm-1.844 2.225A5.201 5.201 0 0 1 12 18.7v4c4.734 0 8.63-3.574 9.143-8.172l-3.975-.443ZM12 18.7a5.201 5.201 0 0 1-5.168-4.615l-3.975.443C3.369 19.126 7.266 22.7 12 22.7v-4Zm-7.888-6.254a.652.652 0 0 1 .238-.046v4c.43 0 .845-.082 1.228-.233l-1.466-3.721Zm.238-.046a.65.65 0 0 1 .65.65H1c0 1.85 1.5 3.35 3.35 3.35v-4Zm.65.65a.65.65 0 0 1-.65.65v-4A3.35 3.35 0 0 0 1 13.05h4Zm-.65.65a.656.656 0 0 1-.308-.078l1.892-3.524A3.344 3.344 0 0 0 4.35 9.7v4Zm2.585-1.386A5.203 5.203 0 0 1 12 8.3v-4c-4.363 0-8.012 3.035-8.96 7.106l3.895.908ZM12 8.3a5.203 5.203 0 0 1 5.064 4.014l3.896-.908C20.012 7.335 16.363 4.3 12 4.3v4Zm7.65 1.4c-.569 0-1.11.143-1.584.398l1.892 3.524a.656.656 0 0 1-.308.078v-4ZM23 13.05c0-1.85-1.5-3.35-3.35-3.35v4a.65.65 0 0 1-.65-.65h4Zm-3.35 3.35c1.85 0 3.35-1.5 3.35-3.35h-4a.65.65 0 0 1 .65-.65v4Zm-1.228-.233c.383.151.798.233 1.228.233v-4c.08 0 .162.016.239.046l-1.467 3.721Z" mask="url(#a)"/><path stroke="#272A44" stroke-linecap="round" stroke-linejoin="round" stroke-width="2" d="M12 5.25S12.079 2 9 2M10.328 11.914C10 11.5 8.5 11 7.5 11.914M10.592 16.5c.328.414 1.828.914 2.828 0M16.328 11.914C16 11.5 14.5 11 13.5 11.914"/></svg>