<svg xmlns="http://www.w3.org/2000/svg" width="24" height="24" fill="none"><path stroke="#272A44" stroke-linecap="round" stroke-linejoin="round" stroke-width="2" d="m13.5 18 .25-3.5M10.5 18l-.25-3.5M16.75 18l.5-3.5M7.25 18l-.5-3.5"/><path stroke="#272A44" stroke-linecap="round" stroke-width="2" d="M6.5 7.5 10 2M17 7.5 13.5 2"/><path stroke="#272A44" stroke-width="2" d="M6.507 21h10.986a2 2 0 0 0 1.982-1.738L20.5 11.5h-17l1.025 7.762A2 2 0 0 0 6.507 21Z"/><path stroke="#272A44" stroke-width="2" d="M19.69 7.5H4.31a2 2 0 0 0-1.98 2.286l.185 1.285a.5.5 0 0 0 .495.429h17.98a.5.5 0 0 0 .495-.429l.185-1.285A2 2 0 0 0 19.69 7.5Z"/></svg>