<svg width="24" height="24" viewBox="0 0 24 24" fill="none" xmlns="http://www.w3.org/2000/svg">
<path d="M11.5 12.9998C11.5 12.9998 11.2474 12.5191 10.4916 11.8162C9.73573 11.1132 8.75071 10.7453 7.74284 10.7894C6.73497 10.8336 5.78242 11.2864 5.08473 12.0531C4.38704 12.8197 3.99832 13.8407 4.00001 14.9022V22.3573" stroke="#272A44" stroke-width="2" stroke-linecap="round" stroke-linejoin="round"/>
<path d="M12 22.3572L12 20.0715" stroke="#272A44" stroke-width="2" stroke-linecap="round" stroke-linejoin="round"/>
<path d="M19.9999 22.4998L19.9999 14.9092C20.0044 13.8392 19.592 12.8097 18.8505 12.0399C18.109 11.2701 17.097 10.8209 16.03 10.7878C14.963 10.7548 13.9253 11.1406 13.1378 11.8631C12.3504 12.5855 12 12.9998 12 12.9998" stroke="#272A44" stroke-width="2" stroke-linecap="round" stroke-linejoin="round"/>
<path d="M11.5 12.9998C12.1101 13.9994 13.0531 15.3906 13.97 16.0713C14.8814 16.6883 17.5812 17.964 18.6097 18.3115L18.8111 18.3913C19.0297 18.4678 19.2318 18.5902 19.4057 18.7512C19.5796 18.9122 19.7217 19.1088 19.8237 19.3293C19.9258 19.5497 19.9857 19.7898 20 20.0353C20.0143 20.2809 19.9827 20.527 19.9071 20.7594C19.8314 20.9917 19.7132 21.2056 19.5594 21.3885C19.4056 21.5714 19.2192 21.7197 19.0112 21.8246C18.8032 21.9296 18.5777 21.9891 18.3479 21.9998C18.1181 22.0104 17.8887 21.9719 17.673 21.8866L17.2471 21.7494C16.0419 21.3566 13.184 19.977 12.1502 19.2068C10.4477 17.9731 8.82104 16.4131 8 14.3963" stroke="#272A44" stroke-width="2" stroke-linecap="round" stroke-linejoin="round"/>
<path d="M14.3051 15.921C14.833 15.4225 16.1559 14.5259 16.1559 14.5259" stroke="#272A44" stroke-width="2" stroke-linecap="round" stroke-linejoin="round"/>
<path d="M8.5 16.4998C8.5 16.4998 6.33957 17.3988 5.42155 17.6798L5.21152 17.7517C4.75919 17.8976 4.38805 18.2037 4.17973 18.6027C3.97141 19.0017 3.94299 19.4608 4.10071 19.8792C4.25843 20.2976 4.58938 20.6408 5.02075 20.8335C5.45212 21.0262 5.94857 21.0525 6.4009 20.9066L6.84507 20.7829C8.10207 20.4287 9.77884 19.8266 10.8571 19.132" stroke="#272A44" stroke-width="2" stroke-linecap="round" stroke-linejoin="round"/>
<path d="M7.99973 7.71404C7.39367 7.71387 6.81248 7.48625 6.38392 7.08121C5.95537 6.67616 5.71453 6.12685 5.71436 5.55404V4.16008C5.71436 3.58712 5.95517 3.03764 6.38383 2.6325C6.81248 2.22736 7.39386 1.99976 8.00007 1.99976C8.60628 1.99976 9.18766 2.22736 9.61631 2.6325C10.045 3.03764 10.2858 3.58712 10.2858 4.16008V5.55404C10.2856 6.12696 10.0447 6.67637 9.61598 7.08143C9.18728 7.48649 8.60592 7.71404 7.99973 7.71404Z" stroke="#272A44" stroke-width="2" stroke-linecap="round" stroke-linejoin="round"/>
<path d="M16.0024 7.71404C15.7021 7.71429 15.4047 7.65861 15.1271 7.55018C14.8496 7.44175 14.5974 7.28269 14.3849 7.0821C14.1724 6.88151 14.0038 6.64331 13.8888 6.38112C13.7737 6.11893 13.7144 5.83788 13.7144 5.55404V4.16008C13.7144 3.58712 13.9552 3.03764 14.3838 2.6325C14.8125 2.22736 15.3939 1.99976 16.0001 1.99976C16.6063 1.99976 17.1877 2.22736 17.6163 2.6325C18.045 3.03764 18.2858 3.58712 18.2858 4.16008V5.55404C18.2856 6.12653 18.045 6.67555 17.6169 7.08053C17.1888 7.48552 16.6081 7.71337 16.0024 7.71404Z" stroke="#272A44" stroke-width="2" stroke-linecap="round" stroke-linejoin="round"/>
</svg>
