<svg width="24" height="24" viewBox="0 0 24 24" fill="none" xmlns="http://www.w3.org/2000/svg">
<path d="M13.5 15.5C17.5 15.5 20.5 12.25 20.5 9C20.5 5.75 17.5 2.5 13.5 2.5V9H6.5C6.5 12.25 9.5 15.5 13.5 15.5Z" stroke="#272A44" stroke-width="2" stroke-linejoin="round"/>
<path d="M6.49974 9.18439C6.49974 9.18439 6.59211 5.59229 3 5.59229" stroke="#272A44" stroke-width="2" stroke-linecap="round" stroke-linejoin="round"/>
<path d="M9.05005 21.5C10.0165 21.5 10.8 20.7165 10.8 19.75C10.8 18.7835 10.0165 18 9.05005 18C8.08355 18 7.30005 18.7835 7.30005 19.75C7.30005 20.7165 8.08355 21.5 9.05005 21.5Z" stroke="#272A44" stroke-width="2" stroke-linecap="round" stroke-linejoin="round"/>
<path d="M18.25 21.5C19.2165 21.5 20 20.7165 20 19.75C20 18.7835 19.2165 18 18.25 18C17.2835 18 16.5 18.7835 16.5 19.75C16.5 20.7165 17.2835 21.5 18.25 21.5Z" stroke="#272A44" stroke-width="2" stroke-linecap="round" stroke-linejoin="round"/>
</svg>
