<svg width="24" height="24" viewBox="0 0 24 24" fill="none" xmlns="http://www.w3.org/2000/svg">
<path d="M5 14.5H4.50008C3.39551 14.5 2.50009 13.6046 2.50008 12.5L2.50002 5.50017C2.50001 4.3956 3.39543 3.50016 4.49999 3.50015L15.5 3.50002C16.6046 3.50001 17.5 4.39544 17.5 5.50002V6" stroke="#272A44" stroke-width="2" stroke-linecap="round" stroke-linejoin="round"/>
<path d="M7.5 21L11.7748 18.7331C12.0634 18.58 12.3851 18.5 12.7118 18.5H19.5C20.6046 18.5 21.5 17.6046 21.5 16.5V10.5C21.5 9.39543 20.6046 8.5 19.5 8.5L9.50001 8.5C8.39544 8.5 7.50001 9.39543 7.50001 10.5L7.5 21Z" stroke="#272A44" stroke-width="2" stroke-linecap="round" stroke-linejoin="round"/>
</svg>
