<svg width="24" height="24" viewBox="0 0 24 24" fill="none" xmlns="http://www.w3.org/2000/svg">
<path d="M21 7.99998V5.00001C21 3.89544 20.1046 3.00001 19 3.00001L5 3C3.89543 3 3 3.89543 3 5V7.99998C3 9.10455 3.89543 9.99998 5 9.99998H19C20.1046 9.99998 21 9.10455 21 7.99998Z" stroke="#272A44" stroke-width="2"/>
<path d="M3.00006 16.0001L3.00014 19C3.00018 20.1046 3.89559 21 5.00014 21L8 21C9.10457 21 10 20.1046 10 19V16C10 14.8954 9.10457 14 8 14H5.00006C3.89547 14 3.00003 14.8955 3.00006 16.0001Z" stroke="#272A44" stroke-width="2"/>
<path d="M14.0001 16.0001L14.0001 19C14.0002 20.1046 14.8956 21 16.0001 21L19 21C20.1046 21 21 20.1046 21 19V16C21 14.8954 20.1046 14 19 14H16.0001C14.8955 14 14 14.8955 14.0001 16.0001Z" stroke="#272A44" stroke-width="2"/>
</svg>
