<svg xmlns="http://www.w3.org/2000/svg" width="24" height="24" fill="none"><path stroke="#272A44" stroke-miterlimit="10" stroke-width="2" d="M12 17a5 5 0 1 0 0-10 5 5 0 0 0 0 10Z"/><path stroke="#272A44" stroke-linecap="round" stroke-miterlimit="10" stroke-width="2" d="M12 7V3M12 21v-4M7 12H3M21 12h-4M12 7V3M11 3h2M11 21h2M21 11v2M3 11v2M12 21v-4M7 12H3M21 12h-4M19.071 17.657l-1.414 1.414M6.343 4.929 4.929 6.343M8.464 8.464 5.636 5.636M18.364 18.364l-2.829-2.829M6.343 19.071l-1.414-1.414M19.071 6.343l-1.414-1.414M15.536 8.464l2.828-2.828M5.636 18.364l2.829-2.829"/></svg>