<svg xmlns="http://www.w3.org/2000/svg" width="24" height="24" fill="none"><path stroke="#272A44" stroke-linecap="round" stroke-width="2" d="M6 6h7M6 11h7M6 16h3"/><rect width="15" height="18" x="2" y="2" stroke="#272A44" stroke-width="2" rx="2"/><path fill="#fff" stroke="#272A44" stroke-width="2" d="M22.987 15.181a.273.273 0 0 0-.08-.127.256.256 0 0 0-.133-.061l-3.48-.53-1.557-3.308a.272.272 0 0 0-.097-.113.256.256 0 0 0-.28 0 .272.272 0 0 0-.097.113l-1.556 3.307-3.48.53a.26.26 0 0 0-.133.063.29.29 0 0 0-.014.41l2.518 2.574-.594 3.637a.29.29 0 0 0 .016.151c.018.048.05.09.09.12a.258.258 0 0 0 .278.021l3.112-1.716 3.113 1.716a.255.255 0 0 0 .278-.021c.04-.03.071-.072.09-.12a.29.29 0 0 0 .016-.151l-.595-3.635 2.517-2.575a.29.29 0 0 0 .068-.284Z"/></svg>