<svg xmlns="http://www.w3.org/2000/svg" width="24" height="24" fill="none"><path stroke="#272A44" stroke-width="2" d="M4 13h16v7a2 2 0 0 1-2 2H6a2 2 0 0 1-2-2v-7ZM9 7H4a2 2 0 0 0-2 2v2a2 2 0 0 0 2 2h16a2 2 0 0 0 2-2V9a2 2 0 0 0-2-2h-5.375"/><path stroke="#272A44" stroke-linecap="round" stroke-linejoin="round" stroke-width="2" d="M12 17c.53 0 1.04.209 1.414.58.375.37.586.872.586 1.396V22h-4v-3.024c0-.524.21-1.026.586-1.397.375-.37.884-.579 1.414-.579Z"/><path stroke="#272A44" stroke-miterlimit="10" stroke-width="2" d="M15.4 4.987a3.494 3.494 0 0 0-.982-2.463 3.398 3.398 0 0 0-1.108-.758 3.357 3.357 0 0 0-3.727.758 3.455 3.455 0 0 0-.734 1.132A3.495 3.495 0 0 0 8.6 4.987c0 1.547 1.901 3.584 2.86 4.513a.77.77 0 0 0 1.079 0c.959-.93 2.86-2.967 2.86-4.513Z"/><path fill="#272A44" d="M12 4a1 1 0 1 1 0 2 1 1 0 0 1 0-2Z"/></svg>