<svg width="24" height="24" viewBox="0 0 24 24" fill="none" xmlns="http://www.w3.org/2000/svg">
<path d="M4 12.0714V9.5C4 5.08172 7.58172 1.5 12 1.5V1.5C16.4183 1.5 20 5.08172 20 9.5V14.5C20 18.9183 16.4183 22.5 12 22.5H9.73444C6.56739 22.5 4 19.9326 4 16.7656V16.7656C4 16.0426 4.53793 15.4339 5.25715 15.3601C8.62746 15.0142 12.8124 14.6978 14.7589 12.2972C15.3837 11.5267 15.5 10.4919 15.5 9.5V9.5V9.5C15.5 7.567 13.933 6 12 6V6V6C10.067 6 8.5 7.567 8.5 9.5V9.5C8.5 9.5 8.5 9.5 8.5 9.5C8.5 9.5 8.5 10.5 9 11" stroke="#272A44" stroke-width="2" stroke-linecap="round"/>
</svg>
