<svg xmlns="http://www.w3.org/2000/svg" width="24" height="24" fill="none"><path stroke="#272A44" stroke-width="2" d="M18.25 12c.75 3.5-2.75 7-6.25 6.25S5 15.5 5.75 12 8 6.5 12 5.75C17 5 17.5 7 18.25 12Z"/><path stroke="#272A44" stroke-width="2" d="M21.839 12.04c1.18 5.488-4.329 10.975-9.84 9.8-5.509-1.177-11.018-4.313-9.838-9.8C3.342 6.551 5.703 3.415 12 2.24c7.871-1.176 8.658 1.96 9.839 9.8Z"/><path fill="#272A44" d="M13.796 11.817c.921.39.727.85.798 1.966.071 1.116-1.24 1.648-2.16 1.258-.921-.39-2.108-1.434-1.064-2.62.739-.84 1.226-1.111 2.426-.604Z"/></svg>