<svg xmlns="http://www.w3.org/2000/svg" width="24" height="24" fill="none"><path stroke="#272A44" stroke-linejoin="round" stroke-miterlimit="10" stroke-width="2" d="M21.129 5.463a2 2 0 0 1-.525.929L16.5 10.5l3.495 7.5-2 1.96-5-5.96-2.495 2.5 1 3L9 22l-2-5-5-2 2.5-2.5 3 1L9.995 11 4 6l2-2 7.5 3.5 4.103-4.107a2 2 0 0 1 .93-.527l1.845-.462a1 1 0 0 1 1.212 1.213l-.461 1.846Z"/><path stroke="#272A44" stroke-linecap="round" stroke-linejoin="round" stroke-miterlimit="10" stroke-width="2" d="m4 20-3 3M15 21l-2 2M3 9l-2 2M2 18l-1 1M6 22l-1 1"/></svg>