<svg width="24" height="24" viewBox="0 0 24 24" fill="none" xmlns="http://www.w3.org/2000/svg">
<path d="M12.64 14.43C12.54 14.12 12.5 13.74 12.5 12.31C12.5 10.88 12.54 10.5 12.64 10.19C12.93 9.31005 13.6 8.80005 14.7 8.80005C15.8 8.80005 16.47 9.31005 16.76 10.19C16.86 10.5 16.9 10.88 16.9 12.31C16.9 13.74 16.86 14.12 16.76 14.43C16.47 15.31 15.8 15.82 14.7 15.82C13.6 15.82 12.93 15.31 12.64 14.43ZM14.02 14.18C14.12 14.48 14.34 14.63 14.7 14.63C15.06 14.63 15.28 14.48 15.38 14.18C15.44 14 15.47 13.8 15.47 12.31C15.47 10.82 15.44 10.62 15.38 10.44C15.28 10.14 15.06 9.99005 14.7 9.99005C14.34 9.99005 14.12 10.14 14.02 10.44C13.96 10.62 13.93 10.82 13.93 12.31C13.93 13.8 13.96 14 14.02 14.18Z" fill="#272A44"/>
<path d="M12.64 14.43C12.54 14.12 12.5 13.74 12.5 12.31C12.5 10.88 12.54 10.5 12.64 10.19C12.93 9.31005 13.6 8.80005 14.7 8.80005C15.8 8.80005 16.47 9.31005 16.76 10.19C16.86 10.5 16.9 10.88 16.9 12.31C16.9 13.74 16.86 14.12 16.76 14.43C16.47 15.31 15.8 15.82 14.7 15.82C13.6 15.82 12.93 15.31 12.64 14.43ZM14.02 14.18C14.12 14.48 14.34 14.63 14.7 14.63C15.06 14.63 15.28 14.48 15.38 14.18C15.44 14 15.47 13.8 15.47 12.31C15.47 10.82 15.44 10.62 15.38 10.44C15.28 10.14 15.06 9.99005 14.7 9.99005C14.34 9.99005 14.12 10.14 14.02 10.44C13.96 10.62 13.93 10.82 13.93 12.31C13.93 13.8 13.96 14 14.02 14.18Z" stroke="#272A44"/>
<path d="M7.07 14.78C7.02 14.67 7 14.55 7 14.44C7 14.09 7.24 13.82 7.63 13.82C7.88 13.82 8.11 13.96 8.27 14.22C8.43 14.48 8.69 14.64 9.04 14.64C9.56 14.64 9.88 14.27 9.88 13.75C9.88 13.16 9.47 12.8 8.98 12.8H8.91C8.55 12.8 8.3 12.56 8.3 12.21C8.3 11.86 8.55 11.62 8.91 11.62H8.98C9.43 11.62 9.75 11.3 9.75 10.78C9.75 10.3 9.45 9.98005 8.99 9.98005C8.59 9.98005 8.4 10.18 8.3 10.39C8.17 10.65 7.93 10.79 7.68 10.79C7.32 10.79 7.06 10.53 7.06 10.17C7.06 10.06 7.09 9.94005 7.14 9.82005C7.39 9.25005 8.07 8.80005 9.05 8.80005C10.38 8.80005 11.15 9.59005 11.15 10.68C11.15 11.26 10.88 11.76 10.39 12.08V12.1C10.81 12.3 11.28 12.85 11.28 13.74C11.28 14.98 10.34 15.82 9.06 15.82C8.08 15.82 7.36 15.44 7.07 14.78Z" fill="#272A44"/>
<path d="M7.07 14.78C7.02 14.67 7 14.55 7 14.44C7 14.09 7.24 13.82 7.63 13.82C7.88 13.82 8.11 13.96 8.27 14.22C8.43 14.48 8.69 14.64 9.04 14.64C9.56 14.64 9.88 14.27 9.88 13.75C9.88 13.16 9.47 12.8 8.98 12.8H8.91C8.55 12.8 8.3 12.56 8.3 12.21C8.3 11.86 8.55 11.62 8.91 11.62H8.98C9.43 11.62 9.75 11.3 9.75 10.78C9.75 10.3 9.45 9.98005 8.99 9.98005C8.59 9.98005 8.4 10.18 8.3 10.39C8.17 10.65 7.93 10.79 7.68 10.79C7.32 10.79 7.06 10.53 7.06 10.17C7.06 10.06 7.09 9.94005 7.14 9.82005C7.39 9.25005 8.07 8.80005 9.05 8.80005C10.38 8.80005 11.15 9.59005 11.15 10.68C11.15 11.26 10.88 11.76 10.39 12.08V12.1C10.81 12.3 11.28 12.85 11.28 13.74C11.28 14.98 10.34 15.82 9.06 15.82C8.08 15.82 7.36 15.44 7.07 14.78Z" stroke="#272A44"/>
<path d="M7.44738 1.8628L10.1488 3.39433L8.57506 6.07138" stroke="#272A44" stroke-width="2" stroke-linecap="round" stroke-linejoin="round"/>
<path d="M9.5 3.35177C5.74572 4.43511 3 7.89691 3 12C3 16.9706 7.02944 21 12 21C16.9706 21 21 16.9706 21 12C21 8.87958 19.412 6.13007 17 4.51555" stroke="#272A44" stroke-width="2" stroke-linecap="round"/>
</svg>
