<svg width="24" height="24" viewBox="0 0 24 24" fill="none" xmlns="http://www.w3.org/2000/svg">
<path d="M15.5 20.5001C16.5 21.3311 17 22.0001 17 22.0001" stroke="#272A44" stroke-width="2" stroke-linecap="round" stroke-linejoin="round"/>
<path d="M8.5 3.49927C7.5224 2.64208 7.04033 1.95999 7.04033 1.95999" stroke="#272A44" stroke-width="2" stroke-linecap="round" stroke-linejoin="round"/>
<path d="M15.5 6C16.5002 7 17.5 8.65802 17.5 11.5C17.5 14 16 16.5 14 18C11 20.5 8 21.999 8 21.999" stroke="#272A44" stroke-width="2" stroke-linecap="round" stroke-linejoin="round"/>
<path d="M8.5 17.9991C7.49985 16.9991 6.5 15.3411 6.5 12.4991C6.5 9.99915 8 7.49915 10 5.99915C13 3.49915 16 2.00012 16 2.00012" stroke="#272A44" stroke-width="2" stroke-linecap="round" stroke-linejoin="round"/>
<path d="M11.25 9.00024H12.75" stroke="#272A44" stroke-width="2" stroke-linecap="round" stroke-linejoin="round"/>
<path d="M11.25 15.0002H12.75" stroke="#272A44" stroke-width="2" stroke-linecap="round" stroke-linejoin="round"/>
<path d="M10 12H14" stroke="#272A44" stroke-width="2" stroke-linecap="round" stroke-linejoin="round"/>
</svg>
