<svg width="24" height="24" viewBox="0 0 24 24" fill="none" xmlns="http://www.w3.org/2000/svg">
<path d="M12.0773 20C9.97703 19.9676 7.9737 19.1106 6.49987 17.6139C5.02604 16.1172 4.19995 14.1009 4.19995 12.0003C4.19995 9.89978 5.02604 7.88349 6.49987 6.38678C7.9737 4.89007 9.97703 4.03302 12.0773 4.00066C14.067 3.97454 15.9885 4.72548 17.4332 6.09384L15.265 8.17754C14.4061 7.36296 13.2608 6.91959 12.0773 6.94346C11.42 6.94929 10.7703 7.08468 10.1653 7.34189C9.56037 7.5991 9.01208 7.97307 8.55182 8.44241C8.09156 8.91175 7.72837 9.46724 7.48303 10.0771C7.23769 10.687 7.11502 11.3392 7.12203 11.9965C7.11502 12.6539 7.23769 13.3061 7.48303 13.916C7.72837 14.5258 8.09156 15.0813 8.55182 15.5507C9.01208 16.02 9.56037 16.394 10.1653 16.6512C10.7703 16.9084 11.42 17.0438 12.0773 17.0496C13.1232 17.1215 14.1597 16.8117 14.9946 16.1777C15.8295 15.5437 16.4062 14.6285 16.6178 13.6018H12.0773V10.8545H19.6299C19.7169 11.2922 19.7605 11.7373 19.7599 12.1835C19.7628 16.7496 16.6947 20 12.0773 20Z" fill="#272A44"/>
</svg>
