<svg width="24" height="24" viewBox="0 0 24 24" fill="none" xmlns="http://www.w3.org/2000/svg">
<path d="M17.9993 12.6127V17.2793C18.0207 18.4274 17.5722 19.5421 16.7401 20.4091C15.908 21.2761 14.7509 21.8342 13.4914 21.9761C12.7955 22.0412 12.0922 21.973 11.4274 21.7758C10.7626 21.5785 10.1512 21.2568 9.63306 20.8314C9.11494 20.4061 8.70172 19.8868 8.42036 19.3073C8.13899 18.7278 7.99579 18.1012 8.00009 17.4682V12" stroke="#272A44" stroke-width="2" stroke-linecap="round" stroke-linejoin="round"/>
<path d="M20 8C20 8.39556 19.8827 8.78224 19.6629 9.11114C19.4432 9.44004 19.1308 9.69638 18.7654 9.84776C18.3999 9.99913 17.9978 10.0387 17.6098 9.96157C17.2219 9.8844 16.8655 9.69392 16.5858 9.41421C16.3061 9.13451 16.1156 8.77814 16.0384 8.39018C15.9613 8.00222 16.0009 7.60009 16.1522 7.23463C16.3036 6.86918 16.56 6.55682 16.8889 6.33706C17.2178 6.1173 17.6044 6 18 6C18.5304 6 19.0391 6.21071 19.4142 6.58579C19.7893 6.96086 20 7.46957 20 8Z" stroke="#272A44" stroke-width="2" stroke-linecap="round" stroke-linejoin="round"/>
<path d="M10.5203 2H10.8988C11.0434 2 11.1867 2.02984 11.3203 2.08781C11.4539 2.14578 11.5752 2.23075 11.6775 2.33786C11.7797 2.44496 11.8608 2.57211 11.916 2.71204C11.9713 2.85197 11.9997 3.00192 11.9996 3.15335V7.75382C12.007 8.30864 11.909 8.85946 11.7113 9.37428C11.5136 9.8891 11.2201 10.3577 10.848 10.7527C10.4759 11.1478 10.0325 11.4615 9.54355 11.6756C9.05464 11.8897 8.52996 12 8 12C7.47004 12 6.94536 11.8897 6.45645 11.6756C5.96754 11.4615 5.52414 11.1478 5.15201 10.7527C4.77988 10.3577 4.48644 9.8891 4.28874 9.37428C4.09105 8.85946 3.99303 8.30864 4.00039 7.75382V3.15335C4.00028 3.00192 4.02868 2.85197 4.08396 2.71204C4.13923 2.57211 4.2203 2.44496 4.32253 2.33786C4.42475 2.23075 4.54614 2.14578 4.67974 2.08781C4.81335 2.02984 4.95655 2 5.10118 2H5.47967" stroke="#272A44" stroke-width="2" stroke-linecap="round" stroke-linejoin="round"/>
</svg>
