<svg width="24" height="24" viewBox="0 0 24 24" fill="none" xmlns="http://www.w3.org/2000/svg">
<path d="M12.0031 21L20.3593 12.6092C21.1439 11.8163 21.677 10.8125 21.8927 9.72204C22.1085 8.63155 21.9973 7.50222 21.573 6.4738C21.1558 5.45015 20.4408 4.57304 19.5193 3.95434C18.5978 3.33565 17.5115 3.00341 16.3989 3.00002C15.4902 2.99737 14.5955 3.22196 13.7974 3.65307C13.0991 4.03191 12.4873 4.54991 12.0004 5.17456C11.3785 4.36784 10.5442 3.74734 9.58944 3.38152C8.6347 3.01571 7.59668 2.91882 6.58996 3.10155C5.58085 3.28964 4.64302 3.74876 3.87848 4.42895C3.11393 5.10915 2.55194 5.98438 2.25362 6.95947C1.94965 7.93793 1.9183 8.97982 2.1629 9.97454C2.40749 10.9693 2.91891 11.8797 3.64285 12.6092L12.0031 21Z" stroke="#272A44" stroke-width="2" stroke-linecap="round" stroke-linejoin="round"/>
</svg>
