<svg width="24" height="24" viewBox="0 0 24 24" fill="none" xmlns="http://www.w3.org/2000/svg">
<path d="M14.2319 6.73984C13.5146 6.58054 12.7901 6.5 12.0615 6.5C8.48652 6.5 5.01016 8.39024 2 11.9682C2.96454 13.3251 4.15126 14.4804 5.5 15.38M18.4426 8.64077C19.6811 9.50084 20.8734 10.6141 22 11.9695C20.8165 13.6281 19.3016 14.985 17.5653 15.9415C15.829 16.8981 13.9148 17.4305 11.9617 17.5C11.2739 17.4721 10.5912 17.3867 9.91967 17.2454" stroke="#272A44" stroke-width="2" stroke-linecap="round" stroke-linejoin="round"/>
<path d="M14.3771 12.673C14.2413 13.0923 14.0062 13.4735 13.6894 13.7797C13.334 14.1232 12.8947 14.354 12.4234 14.4502M11.3969 9.58044C10.9724 9.6929 10.5802 9.91857 10.2614 10.2393C9.96538 10.5373 9.74678 10.9032 9.62061 11.3032" stroke="#272A44" stroke-width="2" stroke-linecap="round" stroke-linejoin="round"/>
<path d="M21.5 2.5L2.5 21.5" stroke="#272A44" stroke-width="2" stroke-linecap="round"/>
</svg>
