<svg xmlns="http://www.w3.org/2000/svg" width="24" height="24" fill="none"><path fill="#272A44" fill-rule="evenodd" d="M12 5h-2a1.515 1.515 0 0 0-1.516-1.5h-.969C6.683 3.5 6.008 4.17 6 5h-.032a3 3 0 0 0-2.989 2.739l-.802 9.187A2.828 2.828 0 0 0 4.995 20c1.415 0 2.74-.697 3.541-1.863l1.421-2.067a1 1 0 0 1 .824-.434H13.218a1 1 0 0 1 .824.434l1.421 2.067A4.298 4.298 0 0 0 19.005 20a2.828 2.828 0 0 0 2.817-3.074l-.802-9.187A3 3 0 0 0 18.032 5H18a1.515 1.515 0 0 0-1.516-1.5h-.969c-.832 0-1.507.67-1.515 1.5h-2ZM4.972 7.913A1 1 0 0 1 5.968 7h12.064a1 1 0 0 1 .996.913l.802 9.187c.042.484-.34.9-.825.9a2.298 2.298 0 0 1-1.894-.996l-1.421-2.067a3 3 0 0 0-2.472-1.3H10.78a3 3 0 0 0-2.472 1.3l-1.42 2.067A2.298 2.298 0 0 1 4.994 18a.828.828 0 0 1-.826-.9l.803-9.187ZM9.5 10.5a1.5 1.5 0 1 1-3 0 1.5 1.5 0 0 1 3 0ZM16 12a1.5 1.5 0 1 0 0-3 1.5 1.5 0 0 0 0 3Z" clip-rule="evenodd"/></svg>