<svg width="24" height="24" viewBox="0 0 24 24" fill="none" xmlns="http://www.w3.org/2000/svg">
<path d="M15.3788 4H8.61613C8.00971 4 7.40924 4.11946 6.849 4.35156C6.28875 4.58365 5.77972 4.92384 5.35097 5.35269C4.92222 5.78154 4.58215 6.29065 4.35018 6.85094C4.11821 7.41124 3.99889 8.01174 3.99902 8.61816V15.3829C3.99889 15.9893 4.11821 16.5898 4.35018 17.1501C4.58215 17.7104 4.92222 18.2195 5.35097 18.6484C5.77972 19.0772 6.28875 19.4174 6.849 19.6495C7.40924 19.8816 8.00971 20.0011 8.61613 20.0011H15.3788C15.9854 20.0015 16.5863 19.8823 17.1469 19.6504C17.7075 19.4185 18.2169 19.0784 18.646 18.6495C19.075 18.2206 19.4154 17.7113 19.6476 17.1508C19.8797 16.5903 19.9992 15.9896 19.999 15.3829V8.61816C19.9992 8.01148 19.8797 7.41072 19.6476 6.85022C19.4154 6.28972 19.075 5.78047 18.646 5.35158C18.2169 4.92268 17.7075 4.58256 17.1469 4.35065C16.5863 4.11874 15.9854 3.99959 15.3788 4ZM18.5234 15.5007C18.5243 16.3128 18.2028 17.092 17.6295 17.6672C17.0563 18.2425 16.2782 18.5666 15.4661 18.5686H8.5362C8.13302 18.5693 7.73367 18.4904 7.36102 18.3365C6.98838 18.1826 6.64976 17.9567 6.36457 17.6717C6.07939 17.3867 5.85324 17.0482 5.69907 16.6757C5.54491 16.3032 5.46577 15.9039 5.46619 15.5007V8.58029C5.46577 8.17712 5.54491 7.77782 5.69907 7.40528C5.85324 7.03274 6.07939 6.69428 6.36457 6.40929C6.64976 6.1243 6.98838 5.89838 7.36102 5.74447C7.73367 5.59057 8.13302 5.5117 8.5362 5.51239H15.4661C16.2782 5.51434 17.0563 5.83853 17.6295 6.41375C18.2028 6.98897 18.5243 7.7682 18.5234 8.58029V15.5007Z" fill="#272A44"/>
<path d="M11.9996 7.88696C11.1782 7.88655 10.3752 8.12972 9.69213 8.58572C9.00902 9.04172 8.47649 9.69007 8.16189 10.4488C7.8473 11.2074 7.76477 12.0424 7.92474 12.848C8.08472 13.6536 8.48002 14.3936 9.06064 14.9745C9.64125 15.5554 10.3811 15.9511 11.1866 16.1115C11.9921 16.2719 12.8271 16.1898 13.586 15.8756C14.3448 15.5614 14.9934 15.0292 15.4498 14.3463C15.9061 13.6634 16.1497 12.8605 16.1497 12.0392C16.1497 10.9383 15.7125 9.8825 14.9343 9.10387C14.156 8.32523 13.1004 7.88752 11.9996 7.88696ZM11.9996 14.7295C11.4675 14.7295 10.9473 14.5717 10.5049 14.2761C10.0625 13.9805 9.71764 13.5603 9.51402 13.0687C9.31039 12.5772 9.25711 12.0362 9.36092 11.5143C9.46473 10.9925 9.72096 10.5131 10.0972 10.1369C10.4735 9.7606 10.9528 9.50437 11.4747 9.40057C11.9966 9.29676 12.5375 9.35004 13.0291 9.55366C13.5207 9.75729 13.9409 10.1021 14.2365 10.5445C14.5321 10.987 14.6899 11.5071 14.6899 12.0392C14.6899 12.3925 14.6203 12.7423 14.4851 13.0687C14.3499 13.3952 14.1517 13.6917 13.9019 13.9416C13.6521 14.1914 13.3555 14.3895 13.0291 14.5247C12.7027 14.6599 12.3529 14.7295 11.9996 14.7295Z" fill="#272A44"/>
<path d="M16.2896 8.698C16.824 8.698 17.2572 8.2648 17.2572 7.73041C17.2572 7.19602 16.824 6.76282 16.2896 6.76282C15.7552 6.76282 15.322 7.19602 15.322 7.73041C15.322 8.2648 15.7552 8.698 16.2896 8.698Z" fill="#272A44"/>
</svg>
