<svg xmlns="http://www.w3.org/2000/svg" width="24" height="24" fill="none"><path stroke="#272A44" stroke-linecap="round" stroke-linejoin="round" stroke-width="2" d="M5 3a2 2 0 0 0-2 2v11a2 2 0 0 0 2 2h10.894a2 2 0 0 1 1.11.336L21 21l-.006-3.32L21 5a2 2 0 0 0-2-2H5Z"/><path fill="#272A44" d="M11.736 12.384c-.456 0-.816-.312-.816-.816 0-.384.096-.744.528-1.224l.648-.732c.36-.396.48-.672.48-.972 0-.468-.312-.792-.792-.792-.444 0-.684.228-.84.588-.168.36-.456.528-.768.528-.456 0-.768-.288-.768-.732 0-.096.024-.216.06-.324.276-.864 1.128-1.5 2.352-1.5 1.428 0 2.412.936 2.412 2.172 0 .612-.192 1.08-.648 1.572l-.744.828c-.204.228-.276.396-.276.588 0 .504-.384.816-.828.816Zm-.984 1.464c0-.54.444-.984.984-.984s.984.444.984.984-.444.984-.984.984a.988.988 0 0 1-.984-.984Z"/></svg>