<svg xmlns="http://www.w3.org/2000/svg" width="24" height="24" fill="none"><path fill="#272A44" fill-rule="evenodd" d="M19.415 7.072c.397.995.596 2.06.584 3.134 0 3.638-4.474 8.43-6.73 10.617a1.811 1.811 0 0 1-2.539 0C8.474 18.637 4 13.844 4 10.206a8.223 8.223 0 0 1 .584-3.134c.397-.995.984-1.9 1.728-2.663a7.995 7.995 0 0 1 2.606-1.783 7.9 7.9 0 0 1 6.163 0 7.995 7.995 0 0 1 2.606 1.783 8.126 8.126 0 0 1 1.728 2.663Zm-6.026.85a2.5 2.5 0 1 0-2.778 4.156 2.5 2.5 0 0 0 2.778-4.157Z" clip-rule="evenodd"/></svg>