<svg width="24" height="24" viewBox="0 0 24 24" fill="none" xmlns="http://www.w3.org/2000/svg">
<path d="M19.9995 10.2056C20.011 9.13229 19.8125 8.06721 19.4156 7.07219C19.0188 6.07717 18.4316 5.17199 17.6876 4.40885C16.9437 3.64572 16.0579 3.03979 15.0817 2.62632C14.1055 2.21284 13.0581 2 12.0002 2C10.9424 2 9.89502 2.21284 8.91879 2.62632C7.94256 3.03979 7.0568 3.64572 6.31286 4.40885C5.56892 5.17199 4.98149 6.07717 4.58464 7.07219C4.1878 8.06721 3.98947 9.13229 4.00096 10.2056C4.00096 13.8442 8.4747 18.6369 10.7308 20.8226C11.445 21.5145 12.555 21.5145 13.2692 20.8225C15.5254 18.6367 19.9995 13.8435 19.9995 10.2056Z" stroke="#272A44" stroke-width="2" stroke-miterlimit="10"/>
<path d="M12 7.5C12.4945 7.5 12.9778 7.64662 13.3889 7.92133C13.8 8.19603 14.1205 8.58648 14.3097 9.04329C14.4989 9.50011 14.5484 10.0028 14.452 10.4877C14.3555 10.9727 14.1174 11.4181 13.7678 11.7678C13.4181 12.1174 12.9727 12.3555 12.4877 12.452C12.0028 12.5484 11.5001 12.4989 11.0433 12.3097C10.5865 12.1205 10.196 11.8 9.92133 11.3889C9.64662 10.9778 9.5 10.4945 9.5 10C9.5 9.33696 9.76339 8.70107 10.2322 8.23223C10.7011 7.76339 11.337 7.5 12 7.5Z" stroke="#272A44" stroke-width="2"/>
</svg>
