<svg width="24" height="24" viewBox="0 0 24 24" fill="none" xmlns="http://www.w3.org/2000/svg">
<path d="M21.7084 16.7805L21.663 16.8405C20.6892 18.5393 19.293 19.9577 17.6097 20.958C15.9264 21.9583 14.0131 22.5067 12.0555 22.55C10.2678 22.5544 8.50541 22.1281 6.91732 21.3073C5.32924 20.4864 3.96224 19.2951 2.93198 17.8341C2.83559 17.7376 2.7115 17.6734 2.57697 17.6506C2.44245 17.6278 2.30416 17.6475 2.18134 17.707C2.11848 17.7426 2.06346 17.7905 2.01958 17.8479C1.97569 17.9053 1.94385 17.9709 1.92595 18.0409C1.90409 18.1265 1.90015 18.2157 1.91438 18.3029C1.92862 18.3901 1.96072 18.4734 2.00867 18.5476C3.15911 20.3141 4.75447 21.7465 6.63426 22.7007C8.51405 23.6548 10.612 24.0972 12.717 23.9831C14.822 23.8691 16.8599 23.2028 18.6256 22.0511C20.3913 20.8994 21.8226 19.3031 22.7755 17.4226C22.8265 17.2927 22.8348 17.1498 22.7991 17.0148C22.7634 16.8798 22.6856 16.7597 22.577 16.672C22.5133 16.6203 22.4399 16.5821 22.3612 16.5595C22.2824 16.5369 22.1998 16.5305 22.1185 16.5407C22.0372 16.5508 21.9588 16.5773 21.888 16.6185C21.8171 16.6597 21.7554 16.7149 21.7064 16.7805H21.7084Z" fill="#272A44"/>
<path d="M6.11457 16.4996C6.65788 16.5005 7.19772 16.4132 7.71305 16.2411C9.04939 15.7549 10.2104 14.8812 11.0475 13.7317C13.4111 11.1096 15.8833 8.62608 17.9315 8.25179C18.4726 8.13789 19.0312 8.13572 19.5731 8.24542C20.1151 8.35512 20.6289 8.57437 21.083 8.88973C21.2561 8.99844 21.4057 9.14072 21.5229 9.30818C21.6401 9.47564 21.7226 9.66489 21.7654 9.86475C21.8595 10.8067 20.8721 12.3069 18.8435 12.5654C17.489 12.7339 17.1737 12.5654 16.8966 12.4186C16.6533 12.269 16.3755 12.1849 16.0901 12.1746C15.665 12.1876 15.2475 12.2902 14.8648 12.4757C14.482 12.6612 14.1428 12.9253 13.8692 13.2509C13.8172 13.2977 13.7749 13.3543 13.7447 13.4174C13.7146 13.4805 13.6972 13.5489 13.6935 13.6188C13.6898 13.6886 13.6999 13.7585 13.7232 13.8245C13.7465 13.8904 13.7826 13.9511 13.8294 14.0031C13.8761 14.0551 13.9327 14.0974 13.9958 14.1275C14.0589 14.1577 14.1274 14.1751 14.1972 14.1788C14.2671 14.1825 14.337 14.1724 14.4029 14.1491C14.4688 14.1258 14.5296 14.0897 14.5816 14.0429C15.4935 13.3264 15.8647 13.3378 16.4013 13.6376C16.9804 13.9761 17.6333 14.1681 18.3034 14.1969C18.9735 14.2257 19.6406 14.0905 20.2465 13.803C22.2534 13.101 23.5924 11.4167 23.428 9.79651C23.3337 9.30636 23.1404 8.84062 22.8599 8.4278C22.5793 8.01498 22.2174 7.66377 21.7964 7.39568C21.1195 6.95802 20.3552 6.67352 19.5569 6.56208C18.7586 6.45063 17.9456 6.51494 17.1747 6.7505C14.5898 7.4298 12.1549 10.1946 10.3765 12.2128C9.81489 12.9036 9.19762 13.5471 8.5309 14.137C7.80695 14.7635 6.87016 15.0882 5.91379 15.0441C4.95742 15.0001 4.05444 14.5906 3.39116 13.9002C1.88263 12.4527 1.61277 9.75101 2.73046 7.3202C3.43604 5.89075 4.45139 4.63655 5.70264 3.64886C6.9539 2.66117 8.40959 1.96482 9.96382 1.61048C11.518 1.25614 13.1317 1.25272 14.6874 1.60046C16.2431 1.9482 17.7018 2.63837 18.9572 3.62074C19.0667 3.7045 19.2025 3.74637 19.3402 3.73878C19.4778 3.7312 19.6082 3.67467 19.7079 3.57939C19.7631 3.5188 19.8059 3.44786 19.8335 3.37065C19.8612 3.29345 19.8733 3.21153 19.8692 3.12962C19.8657 3.05308 19.8463 2.9781 19.8121 2.90954C19.7779 2.84097 19.7297 2.78034 19.6706 2.73155C18.3599 1.65419 16.8356 0.866922 15.1984 0.421675C13.5612 -0.0235715 11.8482 -0.116686 10.1723 0.148472C8.49645 0.41363 6.89585 1.03104 5.47604 1.95998C4.05624 2.88892 2.84948 4.10829 1.93536 5.53768C1.06168 6.94798 -0.112887 10.0767 1.01205 12.8497C1.28563 13.5239 1.67549 14.1447 2.16386 14.684C2.65691 15.2483 3.26387 15.7019 3.9448 16.0148C4.62573 16.3278 5.3652 16.493 6.11457 16.4996Z" fill="#272A44"/>
</svg>
