<svg xmlns="http://www.w3.org/2000/svg" width="24" height="24" fill="none"><path fill="#272A44" d="m21.709 16.78-.046.06a11.363 11.363 0 0 1-9.607 5.71 11.131 11.131 0 0 1-9.124-4.716.657.657 0 0 0-.75-.127.536.536 0 0 0-.256.334.641.641 0 0 0 .083.507 12.004 12.004 0 0 0 20.767-1.125.656.656 0 0 0-.199-.751.607.607 0 0 0-.87.108h.002ZM6.114 16.5a5.02 5.02 0 0 0 1.599-.259 7.149 7.149 0 0 0 3.334-2.51c2.364-2.621 4.836-5.105 6.884-5.48a4.06 4.06 0 0 1 3.152.639 1.53 1.53 0 0 1 .682.975c.094.942-.893 2.442-2.922 2.7-1.354.169-1.67 0-1.947-.146a1.653 1.653 0 0 0-.806-.244 3.021 3.021 0 0 0-2.221 1.076.533.533 0 0 0 .712.792c.912-.717 1.283-.705 1.82-.405a4.12 4.12 0 0 0 3.845.165c2.007-.702 3.346-2.386 3.182-4.006a3.667 3.667 0 0 0-1.632-2.401 5.534 5.534 0 0 0-4.622-.646c-2.584.68-5.02 3.445-6.798 5.463a16.295 16.295 0 0 1-1.845 1.924 3.736 3.736 0 0 1-5.14-.237c-1.509-1.447-1.778-4.149-.66-6.58a10.725 10.725 0 0 1 16.226-3.7.578.578 0 0 0 .75-.04.62.62 0 0 0 .162-.45.547.547 0 0 0-.199-.398A12.005 12.005 0 0 0 1.935 5.538c-.874 1.41-2.048 4.539-.923 7.312a6.213 6.213 0 0 0 1.152 1.834 5.308 5.308 0 0 0 3.95 1.816Z"/></svg>