<svg width="25" height="24" viewBox="0 0 25 24" fill="none" xmlns="http://www.w3.org/2000/svg">
<mask id="path-1-outside-1_11958_8519" maskUnits="userSpaceOnUse" x="1.5" y="2" width="22" height="20" fill="black">
<rect fill="white" x="1.5" y="2" width="22" height="20"/>
<path fill-rule="evenodd" clip-rule="evenodd" d="M19.4234 13.188C18.9212 17.0429 16.0128 20 12.5 20C8.98722 20 6.07878 17.0429 5.57665 13.188C5.36687 13.3222 5.11753 13.4 4.85 13.4C4.10442 13.4 3.5 12.7956 3.5 12.05C3.5 11.3044 4.10442 10.7 4.85 10.7C5.10773 10.7 5.34859 10.7722 5.55345 10.8975C5.93761 7.00096 8.38095 4 12.5 4C16.6191 4 19.0624 7.00096 19.4466 10.8976C19.6514 10.7722 19.8923 10.7 20.15 10.7C20.8956 10.7 21.5 11.3044 21.5 12.05C21.5 12.7956 20.8956 13.4 20.15 13.4C19.8825 13.4 19.6331 13.3222 19.4234 13.188Z"/>
</mask>
<path d="M19.4234 13.188L20.5013 11.5033C19.9246 11.1343 19.1993 11.0859 18.5787 11.3751C17.9581 11.6642 17.5285 12.2507 17.4401 12.9296L19.4234 13.188ZM5.57665 13.188L7.5599 12.9296C7.47146 12.2507 7.0419 11.6642 6.42131 11.3751C5.80072 11.0859 5.07536 11.1343 4.49867 11.5033L5.57665 13.188ZM5.55345 10.8975L4.50983 12.6037C5.09721 12.963 5.82809 12.9948 6.44453 12.6881C7.06096 12.3813 7.47624 11.779 7.5438 11.0938L5.55345 10.8975ZM19.4466 10.8976L17.4562 11.0938C17.5238 11.779 17.939 12.3813 18.5555 12.6881C19.1719 12.9949 19.9028 12.963 20.4902 12.6037L19.4466 10.8976ZM17.4401 12.9296C17.0386 16.0124 14.7974 18 12.5 18V22C17.2282 22 20.8039 18.0733 21.4066 13.4463L17.4401 12.9296ZM12.5 18C10.2026 18 7.96144 16.0124 7.5599 12.9296L3.5934 13.4463C4.19611 18.0733 7.7718 22 12.5 22V18ZM4.49867 11.5033C4.6011 11.4378 4.72418 11.4 4.85 11.4V15.4C5.51087 15.4 6.13265 15.2066 6.65463 14.8726L4.49867 11.5033ZM4.85 11.4C5.20898 11.4 5.5 11.691 5.5 12.05H1.5C1.5 13.9002 2.99985 15.4 4.85 15.4V11.4ZM5.5 12.05C5.5 12.409 5.20899 12.7 4.85 12.7V8.70002C2.99985 8.70002 1.5 10.1999 1.5 12.05H5.5ZM4.85 12.7C4.72907 12.7 4.61019 12.6651 4.50983 12.6037L6.59706 9.19142C6.08699 8.87942 5.48639 8.70002 4.85 8.70002V12.7ZM7.5438 11.0938C7.7015 9.49424 8.26838 8.21657 9.07714 7.364C9.85735 6.54153 10.9657 6 12.5 6V2C9.91527 2 7.74241 2.95895 6.17514 4.61111C4.63644 6.23316 3.78956 8.40427 3.5631 10.7013L7.5438 11.0938ZM12.5 6C14.0343 6 15.1427 6.54153 15.9229 7.364C16.7316 8.21658 17.2985 9.49424 17.4562 11.0938L21.4369 10.7013C21.2104 8.40428 20.3636 6.23317 18.8249 4.61111C17.2576 2.95895 15.0847 2 12.5 2V6ZM20.15 8.70002C19.5136 8.70002 18.913 8.87944 18.4029 9.19143L20.4902 12.6037C20.3898 12.665 20.271 12.7 20.15 12.7V8.70002ZM23.5 12.05C23.5 10.1999 22.0002 8.70002 20.15 8.70002V12.7C19.791 12.7 19.5 12.409 19.5 12.05H23.5ZM20.15 15.4C22.0002 15.4 23.5 13.9002 23.5 12.05H19.5C19.5 11.691 19.791 11.4 20.15 11.4V15.4ZM18.3454 14.8726C18.8673 15.2066 19.4891 15.4 20.15 15.4V11.4C20.2758 11.4 20.3989 11.4378 20.5013 11.5033L18.3454 14.8726Z" fill="#272A44" mask="url(#path-1-outside-1_11958_8519)"/>
<path d="M7.49864 6.40382C7.49864 6.40382 12.2283 8.22522 13.8438 3.70508" stroke="#272A44" stroke-width="2" stroke-linecap="round" stroke-linejoin="round"/>
<path d="M13.5012 4.80652C13.5012 4.80652 15.3767 8.17573 18.5234 6.32227" stroke="#272A44" stroke-width="2" stroke-linecap="round" stroke-linejoin="round"/>
<path d="M10.8283 10.9142C10.5 10.4998 9 9.99985 8 10.9141" stroke="#272A44" stroke-width="2" stroke-linecap="round" stroke-linejoin="round"/>
<path d="M11.0916 15.4999C11.4199 15.9142 12.9199 16.4142 13.9199 15.5" stroke="#272A44" stroke-width="2" stroke-linecap="round" stroke-linejoin="round"/>
<path d="M16.8283 10.9142C16.5 10.4998 15 9.99985 14 10.9141" stroke="#272A44" stroke-width="2" stroke-linecap="round" stroke-linejoin="round"/>
</svg>
