<svg xmlns="http://www.w3.org/2000/svg" width="24" height="24" fill="none"><path stroke="#272A44" stroke-linecap="round" stroke-linejoin="round" stroke-width="2" d="M12 4c.523-1.562 5.82-1.6 6.343 2.565M12 18.5c0 3.373 4.939 2.975 5.823.776 2.874-.734 3.093-3.52 1.566-5.42 2.093-.521 2.093-2.604 1.047-3.646 1.046-2.083 0-3.645-1.57-3.645-1.046 0-1.927.834-1.927 2.154M12 8c0-.94 2-2 3-1.435"/><path stroke="#272A44" stroke-linecap="round" stroke-linejoin="round" stroke-width="2" d="M16 17c-1-2-3.07-1.417-4-1M15.065 11.029c.162.929 1.162 1.427 2.04.784M6.684 8.719c0-1.32-.88-2.154-1.927-2.154-1.57 0-2.616 1.562-1.57 3.645-1.046 1.042-1.046 3.125 1.047 3.645-1.527 1.902-1.308 4.687 1.566 5.42.884 2.2 6.2 2.598 6.2-.775V4c-.523-1.562-6.197-1.6-6.72 2.565M12 8c0-.97-2-2-3-1.5"/><path stroke="#272A44" stroke-linecap="round" stroke-linejoin="round" stroke-width="2" d="M8 17c1-2 3.07-1.417 4-1M8.818 11.029c-.162.929-1.162 1.427-2.04.784"/></svg>