<svg width="24" height="24" viewBox="0 0 24 24" fill="none" xmlns="http://www.w3.org/2000/svg">
<path d="M20 5H4C2.89543 5 2 5.89543 2 7V17C2 18.1046 2.89543 19 4 19H20C21.1046 19 22 18.1046 22 17V7C22 5.89543 21.1046 5 20 5Z" stroke="#272A44" stroke-width="2" stroke-linecap="round" stroke-linejoin="round"/>
<path d="M14 12C14 12.3956 13.8827 12.7822 13.6629 13.1111C13.4432 13.44 13.1308 13.6964 12.7654 13.8478C12.3999 13.9991 11.9978 14.0387 11.6098 13.9616C11.2219 13.8844 10.8655 13.6939 10.5858 13.4142C10.3061 13.1345 10.1156 12.7781 10.0384 12.3902C9.96126 12.0022 10.0009 11.6001 10.1522 11.2346C10.3036 10.8692 10.56 10.5568 10.8889 10.3371C11.2178 10.1173 11.6044 10 12 10C12.5304 10 13.0391 10.2107 13.4142 10.5858C13.7893 10.9609 14 11.4696 14 12Z" stroke="#272A44" stroke-width="2" stroke-linecap="round" stroke-linejoin="round"/>
<path d="M17.5 18.5C17.5 17.4391 17.9214 16.4217 18.6716 15.6716C19.4217 14.9214 20.4391 14.5 21.5 14.5" stroke="#272A44" stroke-width="2" stroke-linecap="round" stroke-linejoin="round"/>
<path d="M2.5 14.5C3.56126 14.5011 4.57866 14.923 5.32868 15.6731C6.07871 16.4231 6.5 17.4399 6.5 18.5" stroke="#272A44" stroke-width="2" stroke-linecap="round" stroke-linejoin="round"/>
<path d="M6.5 5.5C6.5 6.55995 6.07874 7.57656 5.32875 8.32656C4.57876 9.07655 3.56135 9.4986 2.5 9.5" stroke="#272A44" stroke-width="2" stroke-linecap="round" stroke-linejoin="round"/>
<path d="M21.5 9.5C20.4391 9.5 19.4217 9.07857 18.6716 8.32843C17.9214 7.57828 17.5 6.56087 17.5 5.5" stroke="#272A44" stroke-width="2" stroke-linecap="round" stroke-linejoin="round"/>
</svg>
