<svg xmlns="http://www.w3.org/2000/svg" width="24" height="24" fill="none"><path stroke="#272A44" stroke-linejoin="round" stroke-width="2" d="m7 10 12-3"/><path stroke="#272A44" stroke-linecap="round" stroke-linejoin="round" stroke-width="2" d="M7 18c0 .53-.2 1.04-.554 1.414A1.84 1.84 0 0 1 5.11 20H3.89a1.84 1.84 0 0 1-1.336-.586A2.06 2.06 0 0 1 2 18c0-.53.2-1.04.554-1.414A1.84 1.84 0 0 1 3.89 16h1.22c.501 0 .982.211 1.336.586.355.375.554.884.554 1.414ZM19 16c0 .53-.2 1.04-.554 1.414A1.84 1.84 0 0 1 17.11 18h-1.22c-.501 0-.982-.21-1.336-.586A2.06 2.06 0 0 1 14 16c0-.53.2-1.04.554-1.414A1.839 1.839 0 0 1 15.89 14h1.22c.501 0 .982.211 1.337.586.354.375.553.884.553 1.414Z"/><path stroke="#272A44" stroke-linejoin="round" stroke-width="2" d="M7 18V5.91L19 3v13"/></svg>