<svg width="24" height="24" viewBox="0 0 24 24" fill="none" xmlns="http://www.w3.org/2000/svg">
<path d="M15 12C15 12.5933 14.8241 13.1733 14.4945 13.6666C14.1649 14.16 13.6964 14.5445 13.1482 14.7716C12.6001 14.9986 11.9969 15.0581 11.415 14.9424C10.8331 14.8267 10.2986 14.5411 9.87896 14.1216C9.45937 13.7021 9.17359 13.1676 9.05774 12.5858C8.9419 12.0039 9.00119 11.4007 9.22814 10.8525C9.45508 10.3043 9.83947 9.83572 10.3327 9.50598C10.826 9.17624 11.4059 9.00016 11.9992 9C12.7949 9 13.5579 9.31607 14.1205 9.87868C14.6831 10.4413 14.9992 11.2044 14.9992 12" fill="#272A44"/>
<path d="M12 19C15.866 19 19 15.866 19 12C19 8.13401 15.866 5 12 5C8.13401 5 5 8.13401 5 12C5 15.866 8.13401 19 12 19Z" stroke="#272A44" stroke-width="2" stroke-miterlimit="10"/>
<path d="M12 5V2" stroke="#272A44" stroke-width="2" stroke-miterlimit="10" stroke-linecap="round"/>
<path d="M11.9578 22V19" stroke="#272A44" stroke-width="2" stroke-miterlimit="10" stroke-linecap="round"/>
<path d="M19 12H22" stroke="#272A44" stroke-width="2" stroke-miterlimit="10" stroke-linecap="round"/>
<path d="M2 12H5" stroke="#272A44" stroke-width="2" stroke-miterlimit="10" stroke-linecap="round"/>
</svg>
