<svg xmlns="http://www.w3.org/2000/svg" width="24" height="24" fill="none"><path fill="#272A44" d="M7.74 17.14c-.1-.22-.14-.46-.14-.68 0-.7.48-1.24 1.26-1.24.5 0 .96.28 1.28.8.32.52.84.84 1.54.84 1.04 0 1.68-.74 1.68-1.78 0-1.18-.82-1.9-1.8-1.9h-.14c-.72 0-1.22-.48-1.22-1.18s.5-1.18 1.22-1.18h.14c.9 0 1.54-.64 1.54-1.68 0-.96-.6-1.6-1.52-1.6-.8 0-1.18.4-1.38.82-.26.52-.74.8-1.24.8-.72 0-1.24-.52-1.24-1.24 0-.22.06-.46.16-.7.5-1.14 1.86-2.04 3.82-2.04 2.66 0 4.2 1.58 4.2 3.76 0 1.16-.54 2.16-1.52 2.8v.04c.84.4 1.78 1.5 1.78 3.28 0 2.48-1.88 4.16-4.44 4.16-1.96 0-3.4-.76-3.98-2.08Z"/></svg>