<svg xmlns="http://www.w3.org/2000/svg" width="24" height="24" fill="none"><path fill="#272A44" d="M7 14.9c0-1.52.76-2.6 1.62-3.18v-.04c-.64-.46-1.32-1.44-1.32-2.72C7.3 6.86 8.84 5 11.6 5s4.3 1.86 4.3 3.96c0 1.28-.68 2.26-1.32 2.72v.04c.86.58 1.62 1.66 1.62 3.18 0 2.5-1.96 4.14-4.6 4.14-2.64 0-4.6-1.64-4.6-4.14Zm4.6-4.36c.94 0 1.56-.72 1.56-1.58 0-.88-.62-1.6-1.56-1.6-.94 0-1.56.72-1.56 1.6 0 .86.62 1.58 1.56 1.58Zm-1.84 4.24c0 1.12.74 1.9 1.84 1.9s1.84-.78 1.84-1.9c0-1.1-.74-1.88-1.84-1.88s-1.84.78-1.84 1.88Z"/></svg>