<svg xmlns="http://www.w3.org/2000/svg" width="24" height="24" fill="none"><path fill="#272A44" d="M7.85 17.16c-.06-.18-.1-.36-.1-.52 0-.7.52-1.22 1.26-1.22.46 0 .84.2 1.22.66.3.38.88.76 1.52.76.72 0 1.26-.34 1.48-.96.1-.3.18-.68.18-1.3 0-.64-.06-1.02-.16-1.34-.24-.68-.78-.94-1.42-.94-.56 0-.96.22-1.24.58-.38.48-.78.66-1.38.66-.82 0-1.36-.54-1.36-1.44V6.6c0-.74.46-1.2 1.22-1.2h5.62c.78 0 1.28.5 1.28 1.2 0 .72-.5 1.22-1.28 1.22h-4.26c-.08 0-.12.04-.12.12v2.66h.06c.34-.34 1.02-.66 2.04-.66 1.74 0 3 .76 3.5 2.26.18.58.28 1.24.28 2.38 0 .86-.12 1.52-.3 2.06-.54 1.68-2.2 2.58-4.12 2.58-2.08 0-3.56-.94-3.92-2.06Z"/></svg>