<svg xmlns="http://www.w3.org/2000/svg" width="24" height="24" fill="none"><path fill="#272A44" d="M8.44 17.02c-.96 0-1.54-.56-1.54-1.42 0-.5.14-.8.46-1.52l3.54-7.92c.24-.54.68-.88 1.28-.88.76 0 1.34.54 1.34 1.36 0 .22-.06.48-.14.66l-3.3 7.26v.04h2.46c.08 0 .12-.04.12-.12v-1.8c0-.88.58-1.44 1.36-1.44.8 0 1.36.56 1.36 1.44v1.8c0 .08.04.12.12.12h.08c.78 0 1.3.5 1.3 1.2 0 .72-.52 1.22-1.3 1.22h-.08c-.08 0-.12.04-.12.12v.54c0 .88-.56 1.44-1.36 1.44-.78 0-1.36-.56-1.36-1.44v-.54c0-.08-.04-.12-.12-.12h-4.1Z"/></svg>