<svg xmlns="http://www.w3.org/2000/svg" width="24" height="24" fill="none"><path stroke="#272A44" stroke-width="2" d="M3.108 6.986c-.007-.509.44-1.078 1.182-1.238 2.79-.604 5.569-2.16 7.081-3.102a1.293 1.293 0 0 1 1.353 0c1.513.942 4.293 2.498 7.082 3.102.742.16 1.188.729 1.18 1.237-.07 4.632-.448 7.652-1.648 9.854-1.163 2.133-3.19 3.647-6.992 5a.91.91 0 0 1-.6.001c-3.845-1.354-5.87-2.868-7.023-4.997-1.191-2.2-1.55-5.219-1.615-9.857Z"/><path stroke="#272A44" stroke-linecap="round" stroke-linejoin="round" stroke-width="2" d="M12 12v3"/><circle cx="12" cy="11" r="1.5" fill="#272A44"/></svg>