<svg width="24" height="24" viewBox="0 0 24 24" fill="none" xmlns="http://www.w3.org/2000/svg">
<path d="M14.2628 20.9999C15.2478 21.0068 16.1949 20.5672 16.8958 19.7778C17.5966 18.9883 17.9938 17.9137 18 16.7903C17.9976 15.7662 17.7439 14.7633 17.2676 13.8951C16.7912 13.027 16.1113 12.3283 15.3048 11.8781V11.8781C14.2776 11.3004 13.1477 11 12.0024 11C10.8572 11 9.72724 11.3004 8.70005 11.8781C7.89311 12.3284 7.21266 13.0271 6.73554 13.8953C6.25842 14.7635 6.00365 15.7665 6 16.7911C6.00298 17.3472 6.10197 17.8972 6.29133 18.4097C6.48068 18.9222 6.75669 19.3871 7.1036 19.778C7.4505 20.1688 7.86151 20.4778 8.31315 20.6875C8.76479 20.8972 9.24822 21.0033 9.73583 20.9999H14.2628Z" stroke="#272A44" stroke-width="2" stroke-miterlimit="10"/>
<path d="M18.5 8.81824C18.5 8.33602 18.6844 7.87354 19.0126 7.53255C19.3408 7.19156 19.7859 7 20.25 7C20.7141 7 21.1592 7.19156 21.4874 7.53255C21.8156 7.87354 22 8.33602 22 8.81824V10.1818C22 10.664 21.8156 11.1265 21.4874 11.4674C21.1592 11.8084 20.7141 12 20.25 12C19.7859 12 19.3408 11.8084 19.0126 11.4674C18.6844 11.1265 18.5 10.664 18.5 10.1818V8.81824Z" stroke="#272A44" stroke-width="2" stroke-miterlimit="10"/>
<path d="M2 8.81824C2 8.33602 2.18437 7.87354 2.51256 7.53255C2.84075 7.19156 3.28587 7 3.75 7C4.21413 7 4.65925 7.19156 4.98744 7.53255C5.31563 7.87354 5.5 8.33602 5.5 8.81824V10.1818C5.5 10.664 5.31563 11.1265 4.98744 11.4674C4.65925 11.8084 4.21413 12 3.75 12C3.28587 12 2.84075 11.8084 2.51256 11.4674C2.18437 11.1265 2 10.664 2 10.1818V8.81824Z" stroke="#272A44" stroke-width="2" stroke-miterlimit="10"/>
<path d="M7.25 4.81824C7.25 4.33602 7.43437 3.87354 7.76256 3.53255C8.09075 3.19156 8.53587 3 9 3C9.46413 3 9.90925 3.19156 10.2374 3.53255C10.5656 3.87354 10.75 4.33602 10.75 4.81824V6.18176C10.75 6.66398 10.5656 7.12646 10.2374 7.46745C9.90925 7.80844 9.46413 8 9 8C8.53587 8 8.09075 7.80844 7.76256 7.46745C7.43437 7.12646 7.25 6.66398 7.25 6.18176V4.81824Z" stroke="#272A44" stroke-width="2" stroke-miterlimit="10"/>
<path d="M13.25 4.81824C13.25 4.33602 13.4344 3.87354 13.7626 3.53255C14.0908 3.19156 14.5359 3 15 3C15.4641 3 15.9092 3.19156 16.2374 3.53255C16.5656 3.87354 16.75 4.33602 16.75 4.81824V6.18176C16.75 6.66398 16.5656 7.12646 16.2374 7.46745C15.9092 7.80844 15.4641 8 15 8C14.5359 8 14.0908 7.80844 13.7626 7.46745C13.4344 7.12646 13.25 6.66398 13.25 6.18176V4.81824Z" stroke="#272A44" stroke-width="2" stroke-miterlimit="10"/>
</svg>
