<svg width="24" height="24" viewBox="0 0 24 24" fill="none" xmlns="http://www.w3.org/2000/svg">
<path d="M15.6042 21.9244C12.6933 20.971 3.36204 17.0185 4.26924 5.73292C4.31467 5.16776 4.62639 4.65395 5.09139 4.32952L7.92094 2.35535C8.82682 1.72332 10.0735 1.94532 10.7056 2.8512L11.978 4.67494C12.6355 5.61739 12.3647 6.91762 11.4029 7.54638C10.3922 8.20703 9.32233 8.94561 9.2891 9.13224C8.89613 11.3394 11.9197 15.6729 14.1269 16.0658C14.3145 16.0992 15.3762 15.3505 16.3445 14.6302C17.2668 13.9441 18.581 14.1386 19.2387 15.0812L20.5109 16.9046C21.1429 17.8104 20.921 19.0571 20.0151 19.6892L17.1857 21.6633C16.7207 21.9878 16.143 22.1009 15.6042 21.9244Z" stroke="#272A44" stroke-width="2" stroke-linecap="round" stroke-linejoin="round"/>
</svg>
