<svg xmlns="http://www.w3.org/2000/svg" width="24" height="24" fill="none"><path stroke="#272A44" stroke-linecap="round" stroke-linejoin="round" stroke-width="2" d="M11.998 6.5a2.5 2.5 0 1 0 .004 5 2.5 2.5 0 0 0-.004-5v0ZM16 16.5v-.1a1.9 1.9 0 0 0-1.9-1.9H9.9A1.9 1.9 0 0 0 8 16.4v.1"/><path stroke="#272A44" stroke-linecap="round" stroke-width="2" d="M16 21.168A10.036 10.036 0 0 0 21.168 16M2.832 15.832A10.037 10.037 0 0 0 8 21M8 2.832A10.037 10.037 0 0 0 2.832 8M16 2.832A10.036 10.036 0 0 1 21.168 8"/></svg>