<svg xmlns="http://www.w3.org/2000/svg" width="24" height="24" fill="none"><path fill="#272A44" d="m15 12-.832.555L15 12Zm.5 1.5-.997-.074A1 1 0 0 0 15.5 14.5v-1Zm-.25 8.75v1-1ZM5 5l-.89-.454-.052.101-.028.11L5 5Zm5.5 8.947a1 1 0 1 0-2 0h2Zm-5-2.683h1-1Zm-2.02-1.71a1 1 0 0 0-1.96.392l1.96-.392Zm7.162 11.696a1 1 0 0 0 0 2v-2Zm1.86-16.2a1 1 0 1 0 1.997-.1l-1.998.1Zm-5.825 5.428a1 1 0 1 0-1.756-.956l1.756.956ZM8.499 22.25v-1 1Zm5.502-1.875a1 1 0 1 0 2 0h-2Zm-.875 1.875v-1 1Zm.426-15.352-1 .027 1-.027ZM9.643 18.5v1-1ZM13.5 5l1-.027V4.96l-.001-.012L13.5 5Zm.668 7.555c.196.293.276.546.31.707.016.081.021.14.023.17v.022-.007l.001-.009V13.427l.998.073a111.851 111.851 0 0 0 .997.072v-.005l.001-.009a.792.792 0 0 0 .003-.074c0-.04 0-.092-.003-.153a3.132 3.132 0 0 0-.062-.474c-.08-.383-.25-.88-.604-1.412l-1.664 1.11ZM15.5 14.5c.723 0 1.392.397 1.919 1.1.532.71.831 1.626.831 2.4h2c0-1.226-.45-2.56-1.231-3.6-.786-1.047-1.991-1.9-3.519-1.9v2Zm2.75 3.5c0 .808-.256 1.639-.746 2.247-.469.58-1.184 1.003-2.254 1.003v2c1.681 0 2.966-.702 3.81-1.747.82-1.017 1.19-2.311 1.19-3.503h-2Zm-3 3.25H8.5v2h6.75v-2ZM8.5 13.947v4.41h2v-4.41h-2ZM9.643 19.5h3.483v-2H9.643v2Zm.607-10.238V10h2v-.738h-2Zm0 .738c0 .885.721 1.271 1.063 1.413.366.151.853.256 1.2.34.864.21 1.4.42 1.655.802l1.664-1.11c-.746-1.118-2.083-1.45-2.845-1.635-.465-.113-.728-.17-.909-.245-.205-.085.172.01.172.435h-2Zm-6.77-.446c-.09-.45-.035-.728.05-.93.096-.226.267-.444.552-.73.493-.492 1.552-1.307 1.888-2.651l-1.94-.486c-.164.656-.605.966-1.362 1.723-.34.34-.731.778-.98 1.365-.258.61-.328 1.301-.168 2.101l1.96-.392ZM6.5 19.25v-7.986h-2v7.986h2Zm6.626 2h-2.484v2h2.484v-2ZM5.89 5.454l.469-.919-1.782-.909-.469.92 1.782.908ZM9.275 2.75h.805v-2h-.805v2Zm-3.536 9.495.128-.05-.733-1.861-.129.05.734 1.861ZM12.5 5.027l.051 1.898 2-.054-.052-1.898-2 .054Zm-6 6.237c0-.374.088-.624.176-.786L4.92 9.522c-.247.452-.42 1.03-.42 1.742h2ZM6.36 4.535A3.272 3.272 0 0 1 9.275 2.75v-2a5.272 5.272 0 0 0-4.697 2.876l1.782.909ZM1.52 9.946a3.131 3.131 0 0 0 4.219 2.3l-.734-1.862a1.131 1.131 0 0 1-1.524-.83l-1.961.392ZM8.5 21.25a2 2 0 0 1-2-2h-2a4 4 0 0 0 4 4v-2Zm5.5-.875a.875.875 0 0 1-.874.875v2A2.875 2.875 0 0 0 16 20.375h-2ZM11.263 8.25c-.559 0-1.012.453-1.012 1.012h2a.988.988 0 0 1-.988.988v-2Zm0 2a3.29 3.29 0 0 0 3.29-3.38l-2 .055a1.29 1.29 0 0 1-1.29 1.325v2ZM8.5 18.357c0 .631.512 1.143 1.143 1.143v-2c.473 0 .857.384.857.857h-2Zm4.626 1.143c.483 0 .875.392.875.875h2a2.875 2.875 0 0 0-2.875-2.875v2ZM10.08 2.75a2.424 2.424 0 0 1 2.421 2.3l1.998-.1A4.424 4.424 0 0 0 10.08.75v2Z"/></svg>