<svg width="24" height="24" viewBox="0 0 24 24" fill="none" xmlns="http://www.w3.org/2000/svg">
<path d="M5.84705 18.4944L4.00293 18.4971C2.89722 18.4987 2 17.6028 2.00001 16.497L2.00004 10.5C2.00005 9.39543 2.89548 8.5 4.00005 8.5L20 8.50002C21.1046 8.50002 22 9.39545 22 10.5V16.5C22 17.6046 21.1046 18.5 20 18.5L17.9965 18.5" stroke="#272A44" stroke-width="2" stroke-miterlimit="10"/>
<path d="M16 13.4998L8.00002 13.5C6.89544 13.5 6.00003 14.3955 6.00006 15.5L6.00016 18.5001C6.00019 19.6046 6.89561 20.5 8.00016 20.5H16C17.1046 20.5 18 19.6046 18 18.5V15.4998C18 14.3952 17.1045 13.4998 16 13.4998Z" stroke="#272A44" stroke-width="2" stroke-miterlimit="10"/>
<path d="M6 8.49586V5.49999C6 4.39544 6.8954 3.50002 7.99995 3.5L16 3.4998C17.1045 3.49978 18 4.39522 18 5.4998V8.49997" stroke="#272A44" stroke-width="2" stroke-miterlimit="10"/>
</svg>
