<svg width="24" height="24" viewBox="0 0 24 24" fill="none" xmlns="http://www.w3.org/2000/svg">
<path d="M5.75 19L5.75 15C5.75 14.2121 5.91166 13.4319 6.22575 12.7039C6.53984 11.9759 7.00022 11.3145 7.58058 10.7574C8.16095 10.2002 8.84994 9.75825 9.60823 9.45672C10.3665 9.15519 11.1792 9 12 9C12.8208 9 13.6335 9.15519 14.3918 9.45672C15.1501 9.75825 15.8391 10.2002 16.4194 10.7574C16.9998 11.3145 17.4602 11.9759 17.7742 12.7039C18.0883 13.4319 18.25 14.2121 18.25 15V19" stroke="#272A44" stroke-width="2" stroke-linecap="round" stroke-linejoin="round"/>
<path d="M14.5 19V17V15.4C14.5 15.0848 14.4353 14.7727 14.3097 14.4816C14.1841 14.1904 13.9999 13.9258 13.7678 13.7029C13.5356 13.4801 13.26 13.3033 12.9567 13.1827C12.6534 13.0621 12.3283 13 12 13C11.6717 13 11.3466 13.0621 11.0433 13.1827C10.74 13.3033 10.4644 13.4801 10.2322 13.7029C10.0001 13.9258 9.81594 14.1904 9.6903 14.4816C9.56466 14.7727 9.5 15.0848 9.5 15.4V17V19" stroke="#272A44" stroke-width="2" stroke-linecap="round" stroke-linejoin="round"/>
<path d="M22 19V15C22 13.6868 21.7413 12.3864 21.2388 11.1732C20.7362 9.95991 19.9997 8.85752 19.0711 7.92893C18.1425 7.00035 17.0401 6.26375 15.8268 5.7612C14.6136 5.25866 13.3132 5 12 5C10.6868 5 9.38642 5.25866 8.17317 5.7612C6.95991 6.26375 5.85752 7.00035 4.92893 7.92893C4.00035 8.85752 3.26375 9.95991 2.7612 11.1732C2.25866 12.3864 2 13.6868 2 15L2 19" stroke="#272A44" stroke-width="2" stroke-linecap="round" stroke-linejoin="round"/>
</svg>
