<svg width="24" height="24" viewBox="0 0 24 24" fill="none" xmlns="http://www.w3.org/2000/svg">
<path d="M16.5526 1.8628L13.8512 3.39433L15.4249 6.07138" stroke="#272A44" stroke-width="2" stroke-linecap="round" stroke-linejoin="round"/>
<path d="M14.5 3.35177C18.2543 4.43511 21 7.89691 21 12C21 16.9706 16.9706 21 12 21C7.02944 21 3 16.9706 3 12C3 8.87958 4.58803 6.13007 7 4.51555" stroke="#272A44" stroke-width="2" stroke-linecap="round"/>
<path d="M8.65 14.98V10.47H8.63L8 10.9C7.87 10.99 7.72 11.03 7.58 11.03C7.26 11.03 7 10.78 7 10.44C7 10.23 7.11 10.01 7.35 9.85005L8.42 9.11005C8.68 8.93005 8.95 8.80005 9.27 8.80005C9.75 8.80005 10.05 9.14005 10.05 9.65005V14.98C10.05 15.44 9.75 15.72 9.35 15.72C8.94 15.72 8.65 15.44 8.65 14.98Z" fill="#272A44"/>
<path d="M8.65 14.98V10.47H8.63L8 10.9C7.87 10.99 7.72 11.03 7.58 11.03C7.26 11.03 7 10.78 7 10.44C7 10.23 7.11 10.01 7.35 9.85005L8.42 9.11005C8.68 8.93005 8.95 8.80005 9.27 8.80005C9.75 8.80005 10.05 9.14005 10.05 9.65005V14.98C10.05 15.44 9.75 15.72 9.35 15.72C8.94 15.72 8.65 15.44 8.65 14.98Z" stroke="#272A44"/>
<path d="M12.2396 14.43C12.1396 14.12 12.0996 13.74 12.0996 12.31C12.0996 10.88 12.1396 10.5 12.2396 10.19C12.5296 9.31005 13.1996 8.80005 14.2996 8.80005C15.3996 8.80005 16.0696 9.31005 16.3596 10.19C16.4596 10.5 16.4996 10.88 16.4996 12.31C16.4996 13.74 16.4596 14.12 16.3596 14.43C16.0696 15.31 15.3996 15.82 14.2996 15.82C13.1996 15.82 12.5296 15.31 12.2396 14.43ZM13.6196 14.18C13.7196 14.48 13.9396 14.63 14.2996 14.63C14.6596 14.63 14.8796 14.48 14.9796 14.18C15.0396 14 15.0696 13.8 15.0696 12.31C15.0696 10.82 15.0396 10.62 14.9796 10.44C14.8796 10.14 14.6596 9.99005 14.2996 9.99005C13.9396 9.99005 13.7196 10.14 13.6196 10.44C13.5596 10.62 13.5296 10.82 13.5296 12.31C13.5296 13.8 13.5596 14 13.6196 14.18Z" fill="#272A44"/>
<path d="M12.2396 14.43C12.1396 14.12 12.0996 13.74 12.0996 12.31C12.0996 10.88 12.1396 10.5 12.2396 10.19C12.5296 9.31005 13.1996 8.80005 14.2996 8.80005C15.3996 8.80005 16.0696 9.31005 16.3596 10.19C16.4596 10.5 16.4996 10.88 16.4996 12.31C16.4996 13.74 16.4596 14.12 16.3596 14.43C16.0696 15.31 15.3996 15.82 14.2996 15.82C13.1996 15.82 12.5296 15.31 12.2396 14.43ZM13.6196 14.18C13.7196 14.48 13.9396 14.63 14.2996 14.63C14.6596 14.63 14.8796 14.48 14.9796 14.18C15.0396 14 15.0696 13.8 15.0696 12.31C15.0696 10.82 15.0396 10.62 14.9796 10.44C14.8796 10.14 14.6596 9.99005 14.2996 9.99005C13.9396 9.99005 13.7196 10.14 13.6196 10.44C13.5596 10.62 13.5296 10.82 13.5296 12.31C13.5296 13.8 13.5596 14 13.6196 14.18Z" stroke="#272A44"/>
</svg>
