<svg width="24" height="24" viewBox="0 0 24 24" fill="none" xmlns="http://www.w3.org/2000/svg">
<path d="M22.0008 13.0002L22.0008 11.0002L19.5692 9.99727L18.7678 8.06583L19.7789 5.63625L18.3651 4.22162L15.9336 5.23167L14.0023 4.43014L13.0018 2.00024L11.0018 2.00038L9.99843 4.43188L8.06753 5.23341L5.63622 4.22256L4.22201 5.63677L5.2346 8.06398L4.43352 9.99352L2.00073 11.0007L2.00079 13.0007L4.43352 14.0012L5.23548 15.932L4.22293 18.3645L5.63714 19.7787L8.06797 18.7674L9.99826 19.5685L11.001 22.0002L13.001 22.0004L14.0003 19.5681L15.931 18.7665L18.3647 19.7784L19.7789 18.3642L18.7626 15.9349L19.5637 14.0038L22.0008 13.0002Z" stroke="#272A44" stroke-width="2" stroke-linejoin="round"/>
<path d="M15 12C15 12.5933 14.8241 13.1734 14.4944 13.6667C14.1648 14.1601 13.6962 14.5446 13.1481 14.7716C12.5999 14.9987 11.9967 15.0581 11.4147 14.9424C10.8328 14.8266 10.2982 14.5409 9.87868 14.1213C9.45912 13.7018 9.1734 13.1672 9.05765 12.5853C8.94189 12.0033 9.0013 11.4001 9.22836 10.8519C9.45543 10.3038 9.83994 9.83524 10.3333 9.50559C10.8266 9.17595 11.4067 9 12 9C12.7956 9 13.5587 9.31607 14.1213 9.87868C14.6839 10.4413 15 11.2043 15 12V12Z" stroke="#272A44" stroke-width="2" stroke-linejoin="round"/>
</svg>
