<svg width="24" height="24" viewBox="0 0 24 24" fill="none" xmlns="http://www.w3.org/2000/svg">
<path fill-rule="evenodd" clip-rule="evenodd" d="M11.9617 17.5C10.0209 17.4214 8.12075 16.8844 6.39812 15.9278C4.67549 14.9712 3.17335 13.6188 2 11.9682C5.01016 8.39024 8.48652 6.5 12.0615 6.5C15.5914 6.5 19.0251 8.39024 22 11.9695C20.8165 13.6281 19.3016 14.985 17.5653 15.9415C15.829 16.8981 13.9148 17.4305 11.9617 17.5Z" stroke="#272A44" stroke-width="2" stroke-linecap="round" stroke-linejoin="round"/>
<path d="M11.9617 9.50269C12.6421 9.52294 13.2873 9.81965 13.7579 10.3286C13.9878 10.5529 14.1719 10.8227 14.2993 11.1219C14.4268 11.4211 14.495 11.7437 14.5 12.0706C14.441 12.7238 14.1525 13.3319 13.6893 13.7797C13.226 14.2275 12.6201 14.4837 11.9864 14.5C11.3194 14.4939 10.6815 14.216 10.2111 13.7265C9.98287 13.4976 9.80214 13.2229 9.67991 12.9192C9.55768 12.6155 9.49652 12.2893 9.50015 11.9603C9.53748 11.3084 9.80899 10.6945 10.2613 10.2393C10.7137 9.78405 11.3142 9.52034 11.9448 9.5" stroke="#272A44" stroke-width="2" stroke-linecap="round" stroke-linejoin="round"/>
</svg>
