<svg width="24" height="24" viewBox="0 0 24 24" fill="none" xmlns="http://www.w3.org/2000/svg">
<path d="M21.9772 9.72222C21.9501 9.6368 21.8992 9.56081 21.8304 9.50314C21.7616 9.44547 21.6778 9.40849 21.5887 9.39652L15.2613 8.48079L12.4317 2.76689C12.3919 2.68677 12.3305 2.61932 12.2543 2.57216C12.1781 2.52499 12.0902 2.5 12.0005 2.5C11.9108 2.5 11.8229 2.52499 11.7467 2.57216C11.6705 2.61932 11.6091 2.68677 11.5694 2.76689L8.73972 8.47961L2.41119 9.39534C2.32251 9.40828 2.23923 9.44565 2.17074 9.50324C2.10225 9.56082 2.05128 9.63633 2.02357 9.72124C1.99586 9.80615 1.99251 9.89709 2.01391 9.9838C2.03531 10.0705 2.08061 10.1495 2.14468 10.2119L6.72378 14.6584L5.64356 20.94C5.6284 21.028 5.63828 21.1186 5.67209 21.2014C5.70589 21.2842 5.76227 21.3559 5.83485 21.4085C5.90742 21.461 5.99331 21.4923 6.08279 21.4987C6.17227 21.5052 6.26178 21.4866 6.3412 21.445L12.0005 18.4807L17.6598 21.445C17.7392 21.4866 17.8288 21.5052 17.9182 21.4987C18.0077 21.4923 18.0936 21.461 18.1662 21.4085C18.2388 21.3559 18.2951 21.2842 18.3289 21.2014C18.3627 21.1186 18.3726 21.028 18.3575 20.94L17.2761 14.6608L21.8528 10.2131C21.9175 10.151 21.9634 10.0721 21.9854 9.98538C22.0074 9.89861 22.0045 9.80745 21.9772 9.72222V9.72222Z" stroke="#272A44" stroke-width="2"/>
</svg>
