<svg xmlns="http://www.w3.org/2000/svg" width="24" height="24" fill="none"><path stroke="#272A44" stroke-linecap="round" stroke-linejoin="round" stroke-width="2" d="M4.597 16.076A8.197 8.197 0 0 1 3.5 11.934a8.2 8.2 0 0 1 1.146-4.129A8.367 8.367 0 0 1 7.73 4.787a8.535 8.535 0 0 1 4.2-1.103h3.354"/><path stroke="#272A44" stroke-linecap="round" stroke-linejoin="round" stroke-width="2" d="m13.813 5.857 2.213-2.179L13.813 1.5M19.403 7.926a8.197 8.197 0 0 1 1.097 4.141 8.2 8.2 0 0 1-1.146 4.13 8.368 8.368 0 0 1-3.083 3.017 8.534 8.534 0 0 1-4.202 1.104H8.715"/><path stroke="#272A44" stroke-linecap="round" stroke-linejoin="round" stroke-width="2" d="m10.187 18.143-2.213 2.179 2.213 2.178M9 12.133 10.909 14 15 10"/></svg>