<svg width="24" height="24" viewBox="0 0 24 24" fill="none" xmlns="http://www.w3.org/2000/svg">
<path d="M9 16V17C9 18.1046 9.89543 19 11 19H17.3945C17.7893 19 18.1753 19.1169 18.5039 19.3359L21 21L20.9962 18.787L20.9992 11.0008C20.9997 9.89591 20.1041 9 18.9992 9H18" stroke="#272A44" stroke-width="2" stroke-linecap="round" stroke-linejoin="round"/>
<path d="M13 3C14.1046 3 15 3.89543 15 5V11C15 12.1046 14.1046 13 13 13H6.60555C6.21069 13 5.82468 13.1169 5.49614 13.3359L3 15L3.00384 12.787L3.00078 5.00079C3.00034 3.89591 3.8959 3 5.00078 3H13Z" stroke="#272A44" stroke-width="2" stroke-linecap="round" stroke-linejoin="round"/>
</svg>
