<svg width="24" height="24" viewBox="0 0 24 24" fill="none" xmlns="http://www.w3.org/2000/svg">
<circle cx="12" cy="12" r="10" stroke="#272A44" stroke-width="2"/>
<path d="M11.8922 14.298C12.4102 14.298 12.8582 13.934 12.8582 13.346C12.8582 13.122 12.9422 12.926 13.1802 12.66L14.0482 11.694C14.5802 11.12 14.8042 10.574 14.8042 9.86C14.8042 8.418 13.6562 7.326 11.9902 7.326C10.5622 7.326 9.5682 8.068 9.2462 9.076C9.2042 9.202 9.1762 9.342 9.1762 9.454C9.1762 9.972 9.5402 10.308 10.0722 10.308C10.4362 10.308 10.7722 10.112 10.9682 9.692C11.1502 9.272 11.4302 9.006 11.9482 9.006C12.5082 9.006 12.8722 9.384 12.8722 9.93C12.8722 10.28 12.7322 10.602 12.3122 11.064L11.5562 11.918C11.0522 12.478 10.9402 12.898 10.9402 13.346C10.9402 13.934 11.3602 14.298 11.8922 14.298ZM10.7442 16.006C10.7442 16.636 11.2622 17.154 11.8922 17.154C12.5222 17.154 13.0402 16.636 13.0402 16.006C13.0402 15.376 12.5222 14.858 11.8922 14.858C11.2622 14.858 10.7442 15.376 10.7442 16.006Z" fill="#272A44"/>
</svg>
