<svg width="24" height="24" viewBox="0 0 24 24" fill="none" xmlns="http://www.w3.org/2000/svg">
<path d="M17.8511 8.99309V9.38738C17.8589 10.5205 17.6414 11.644 17.2114 12.6924C16.7813 13.7408 16.1473 14.6933 15.346 15.4946C14.5447 16.2959 13.5922 16.93 12.5438 17.36C11.4953 17.79 10.3719 18.0075 9.23877 17.9997C7.59412 18.0024 5.98358 17.5308 4.6001 16.6415C4.84306 16.668 5.08735 16.6803 5.33173 16.6783C6.69433 16.6821 8.01848 16.2268 9.09069 15.3859C8.45876 15.374 7.84636 15.1648 7.3391 14.7878C6.83183 14.4108 6.45504 13.8847 6.2614 13.283C6.45067 13.313 6.64194 13.3285 6.83356 13.3295C7.10238 13.3283 7.36998 13.2933 7.63004 13.2252C6.94419 13.0871 6.32735 12.7157 5.88439 12.1742C5.44143 11.6327 5.1997 10.9544 5.2003 10.2548V10.218C5.61968 10.4528 6.08869 10.5849 6.56895 10.6036C5.92642 10.1754 5.47159 9.51812 5.29734 8.76593C5.1231 8.01374 5.24258 7.22341 5.6314 6.55634C6.39039 7.4911 7.33716 8.25612 8.41046 8.8019C9.48376 9.34768 10.6597 9.66207 11.8621 9.72473C11.8131 9.49719 11.7873 9.26527 11.785 9.03252C11.7845 8.42489 11.9667 7.83113 12.3079 7.32835C12.6491 6.82558 13.1336 6.437 13.6985 6.2131C14.2633 5.98919 14.8825 5.94029 15.4755 6.07275C16.0685 6.20521 16.608 6.51291 17.0239 6.9559C17.7023 6.82531 18.3528 6.57774 18.9463 6.22426C18.7221 6.92117 18.2522 7.51283 17.6241 7.88906C18.2245 7.82282 18.8116 7.66718 19.366 7.4273C18.9512 8.02966 18.4379 8.55781 17.8476 8.98958L17.8511 8.99309Z" fill="#272A44"/>
</svg>
