<svg width="24" height="24" viewBox="0 0 24 24" fill="none" xmlns="http://www.w3.org/2000/svg">
<path d="M17.9978 5.00021C17.4045 5.00066 16.8248 5.17696 16.3317 5.50684C15.8387 5.83672 15.4545 6.30535 15.2278 6.85352C15.001 7.4017 14.9419 8.00481 15.0579 8.58658C15.1738 9.16836 15.4597 9.7027 15.8792 10.1221C16.2988 10.5414 16.8332 10.827 17.4151 10.9426C17.9969 11.0583 18.6 10.9988 19.1481 10.7718C19.6961 10.5448 20.1646 10.1604 20.4942 9.66724C20.8238 9.17404 20.9999 8.59416 21 8.00095C20.9996 7.20496 20.6831 6.44172 20.1202 5.87901C19.5572 5.3163 18.7937 5.00021 17.9978 5.00021V5.00021Z" stroke="#272A44" stroke-width="2" stroke-linecap="round" stroke-linejoin="round"/>
<path d="M23 20.0001C23 19.7665 23 19.4136 23 19.0011C23 16.7919 21.2091 15.0001 18.9999 15.0002L17.5 15.0002" stroke="#272A44" stroke-width="2" stroke-linecap="round" stroke-linejoin="round"/>
<path d="M7.49747 3C6.70649 3.0005 5.93344 3.2355 5.27599 3.67528C4.61854 4.11507 4.10625 4.73991 3.80386 5.47081C3.50147 6.2017 3.42254 7.00584 3.5771 7.78157C3.73166 8.5573 4.11274 9.26984 4.67217 9.82903C5.23159 10.3882 5.94424 10.769 6.72004 10.9232C7.49584 11.0775 8.29994 10.9982 9.03071 10.6955C9.76149 10.3928 10.3861 9.88024 10.8256 9.22261C11.2651 8.56498 11.4998 7.79181 11.5 7.00083V7.00083C11.4996 5.9396 11.0777 4.92197 10.3271 4.17172C9.57654 3.42147 8.55871 3 7.49747 3V3Z" stroke="#272A44" stroke-width="2" stroke-linecap="round" stroke-linejoin="round"/>
<path d="M14 21L14 19.0001C14 16.791 12.2092 15.0001 10.0001 15.0001L5.00009 15C2.79095 15 1.00006 16.7908 1.00003 18.9999L1 21" stroke="#272A44" stroke-width="2" stroke-linecap="round" stroke-linejoin="round"/>
</svg>
