<svg width="24" height="24" viewBox="0 0 24 24" fill="none" xmlns="http://www.w3.org/2000/svg">
<path d="M16 21L19 21C20.1046 21 21 20.1046 21 19L21 5C21 3.89543 20.1046 3 19 3L16 3C14.8954 3 14 3.89543 14 5L14 19C14 20.1046 14.8954 21 16 21Z" stroke="#272A44" stroke-width="2"/>
<path d="M5.00002 21L7.99999 21C9.10456 21 9.99999 20.1046 9.99999 19L10 5C10 3.89543 9.10457 3 8 3L5.00002 3C3.89545 3 3.00002 3.89543 3.00002 5L3.00002 19C3.00002 20.1046 3.89545 21 5.00002 21Z" stroke="#272A44" stroke-width="2"/>
</svg>
