<svg width="24" height="24" viewBox="0 0 24 24" fill="none" xmlns="http://www.w3.org/2000/svg">
<path d="M3.00006 16.0001L3.00014 19C3.00018 20.1046 3.89559 21 5.00014 21L8 21C9.10457 21 10 20.1046 10 19V16C10 14.8954 9.10457 14 8 14H5.00006C3.89547 14 3.00003 14.8955 3.00006 16.0001Z" stroke="#272A44" stroke-width="2"/>
<path d="M3.00006 5.00007L3.00014 8.00005C3.00018 9.10459 3.89559 9.99999 5.00014 9.99999L8 10C9.10457 10 10 9.10457 10 8V5.00001C10 3.89545 9.10457 3.00001 8 3.00001L5.00006 3.00001C3.89547 3.00001 3.00003 3.89548 3.00006 5.00007Z" stroke="#272A44" stroke-width="2"/>
<path d="M14.0001 16.0001L14.0001 19C14.0002 20.1046 14.8956 21 16.0001 21L19 21C20.1046 21 21 20.1046 21 19V16C21 14.8954 20.1046 14 19 14H16.0001C14.8955 14 14 14.8955 14.0001 16.0001Z" stroke="#272A44" stroke-width="2"/>
<path d="M14.0001 5.00007L14.0001 8.00005C14.0002 9.10459 14.8956 9.99999 16.0001 9.99999L19 10C20.1046 10 21 9.10457 21 8V5.00001C21 3.89545 20.1046 3.00001 19 3.00001L16.0001 3.00001C14.8955 3.00001 14 3.89548 14.0001 5.00007Z" stroke="#272A44" stroke-width="2"/>
</svg>
