<svg width="24" height="24" viewBox="0 0 24 24" fill="none" xmlns="http://www.w3.org/2000/svg">
<path d="M20.0955 16.0644C20.0091 16.4987 19.7894 16.8952 19.4669 17.1986C19.1444 17.502 18.7352 17.6972 18.2965 17.7569C16.2048 17.952 14.1039 18.0298 12.0035 17.9898C9.90316 18.0298 7.80221 17.952 5.71055 17.7569C5.26972 17.6977 4.85814 17.503 4.53268 17.1999C4.20722 16.8967 3.98392 16.4999 3.89364 16.0644C3.65948 14.7228 3.56539 13.3605 3.61289 11.9995C3.56217 10.638 3.66234 9.27506 3.91156 7.9356C3.99927 7.50195 4.21945 7.10622 4.54169 6.80306C4.86394 6.49989 5.27235 6.30425 5.71055 6.24314C7.80221 6.04798 9.90316 5.97021 12.0035 6.01018C14.1039 5.97021 16.2048 6.04798 18.2965 6.24314C18.7373 6.30234 19.1489 6.49697 19.4744 6.80014C19.7998 7.10332 20.0231 7.50007 20.1134 7.9356C20.3476 9.27785 20.4417 10.6408 20.3941 12.0025C20.4447 13.3633 20.3446 14.7256 20.0955 16.0644ZM15.3168 11.4938L10.5241 8.4971C10.4324 8.43779 10.3262 8.40475 10.217 8.40159C10.1078 8.39843 9.99986 8.42527 9.90487 8.47918C9.81149 8.53146 9.73363 8.60756 9.67924 8.69972C9.62485 8.79189 9.59587 8.89683 9.59525 9.00384V14.9942C9.59587 15.1012 9.62485 15.2061 9.67924 15.2983C9.73363 15.3905 9.81149 15.4665 9.90487 15.5188C9.99435 15.5669 10.094 15.5928 10.1956 15.5945C10.3086 15.5961 10.4194 15.5631 10.5132 15.4999L15.3168 12.5052C15.4025 12.4515 15.4733 12.3769 15.5223 12.2883C15.5713 12.1998 15.597 12.1002 15.597 11.999C15.597 11.8978 15.5713 11.7982 15.5223 11.7097C15.4733 11.6211 15.4025 11.5465 15.3168 11.4928V11.4938Z" fill="#272A44"/>
</svg>
